<svg width="200" height="54" viewBox="0 0 200 54" fill="none" xmlns="http://www.w3.org/2000/svg">
<g clip-path="url(#clip0_55_931)">
<path d="M62.8879 45H62V41H66V45H65.1124V41.6304H62.8879V45Z" fill="white"/>
<path d="M69.735 47H69V41.0989H69.7192V41.7252H69.743C69.8905 41.4946 70.0857 41.3159 70.328 41.1896C70.5703 41.0633 70.8287 41 71.1026 41C71.3873 41 71.6454 41.0549 71.8775 41.1648C72.1145 41.2691 72.3147 41.4148 72.4782 41.6015C72.6468 41.7885 72.776 42.0082 72.8655 42.2611C72.9551 42.5082 73 42.7747 73 43.0603C73 43.3462 72.9551 43.6153 72.8655 43.8682C72.776 44.1153 72.6468 44.3324 72.4782 44.5191C72.3147 44.7061 72.1145 44.8544 71.8775 44.9643C71.6454 45.0741 71.3845 45.129 71.0948 45.129C70.8364 45.129 70.5861 45.0686 70.3438 44.9478C70.1015 44.827 69.9063 44.6509 69.7588 44.4203H69.735V47ZM72.2567 43.0603C72.2567 42.8681 72.2279 42.6869 72.17 42.5163C72.1173 42.3406 72.0355 42.1894 71.9249 42.0631C71.8143 41.9313 71.6798 41.827 71.5218 41.7501C71.3635 41.6732 71.1816 41.6347 70.9762 41.6347C70.7865 41.6347 70.6099 41.6732 70.4466 41.7501C70.2883 41.8215 70.1514 41.9229 70.0355 42.055C69.9196 42.1813 69.8301 42.3325 69.7668 42.5082C69.7034 42.6785 69.6718 42.8626 69.6718 43.0603C69.6718 43.2583 69.7034 43.445 69.7668 43.6208C69.8301 43.7913 69.9196 43.9422 70.0355 44.0743C70.1514 44.2006 70.2883 44.3021 70.4466 44.3792C70.6099 44.4506 70.7865 44.4862 70.9762 44.4862C71.1816 44.4862 71.3635 44.4477 71.5218 44.3708C71.6798 44.294 71.8143 44.1922 71.9249 44.0659C72.0355 43.9341 72.1173 43.7829 72.17 43.6127C72.2279 43.4367 72.2567 43.2528 72.2567 43.0603Z" fill="white"/>
<path d="M80 43C80 43.2923 79.948 43.5606 79.8441 43.8048C79.7454 44.0493 79.6051 44.2617 79.423 44.4422C79.2463 44.6177 79.0358 44.7558 78.7915 44.8566C78.5471 44.9522 78.2821 45 77.996 45C77.7103 45 77.445 44.9522 77.2008 44.8566C76.9618 44.7558 76.7512 44.6177 76.5691 44.4422C76.3924 44.2617 76.2521 44.0493 76.1482 43.8048C76.0495 43.5606 76 43.2923 76 43C76 42.708 76.0495 42.4397 76.1482 42.1952C76.2521 41.951 76.3924 41.7411 76.5691 41.5659C76.7512 41.3854 76.9618 41.247 77.2008 41.1515C77.445 41.0506 77.7103 41 77.996 41C78.2821 41 78.5471 41.0506 78.7915 41.1515C79.0358 41.247 79.2463 41.3854 79.423 41.5659C79.6051 41.7411 79.7454 41.951 79.8441 42.1952C79.948 42.4397 80 42.708 80 43ZM79.2671 43C79.2671 42.8089 79.2359 42.6309 79.1736 42.4663C79.1164 42.2964 79.0333 42.1502 78.9242 42.0281C78.8148 41.9004 78.6824 41.8023 78.5263 41.7333C78.3704 41.6589 78.1938 41.6218 77.996 41.6218C77.7986 41.6218 77.6219 41.6589 77.4658 41.7333C77.3099 41.8023 77.1773 41.9004 77.0682 42.0281C76.959 42.1502 76.8759 42.2964 76.8188 42.4663C76.7616 42.6309 76.7329 42.8089 76.7329 43C76.7329 43.1861 76.7616 43.3638 76.8188 43.534C76.8759 43.6986 76.959 43.8448 77.0682 43.9722C77.1773 44.0943 77.3099 44.1927 77.4658 44.267C77.6219 44.3413 77.7986 44.3785 77.996 44.3785C78.1938 44.3785 78.3704 44.3413 78.5263 44.267C78.6824 44.1927 78.8148 44.0943 78.9242 43.9722C79.0333 43.8448 79.1164 43.6986 79.1736 43.534C79.2359 43.3638 79.2671 43.1861 79.2671 43Z" fill="white"/>
<path d="M85.8594 40.4209C86.1735 40.4209 86.4617 40.4812 86.7242 40.6011C86.9869 40.7151 87.2124 40.8742 87.4007 41.0781C87.5889 41.276 87.7346 41.513 87.8373 41.7892C87.9457 42.0591 88 42.3501 88 42.6619C88 42.9861 87.9457 43.2859 87.8373 43.5621C87.7346 43.832 87.5889 44.0659 87.4007 44.2641C87.2124 44.462 86.9869 44.6179 86.7242 44.7319C86.4617 44.8461 86.1735 44.9061 85.8594 44.9121V47H85.1232V44.9121C84.8208 44.9061 84.5383 44.8461 84.2755 44.7319C84.0188 44.6179 83.7963 44.462 83.6077 44.2641C83.4195 44.0599 83.2711 43.8231 83.1627 43.553C83.0541 43.2771 83 42.9801 83 42.6619C83 42.3441 83.0513 42.0499 83.154 41.78C83.2624 41.5102 83.4111 41.276 83.5993 41.0781C83.7876 40.8742 84.0101 40.7151 84.2671 40.6011C84.5295 40.4872 84.8151 40.4272 85.1232 40.4209V38H85.8594V40.4209ZM87.2037 42.6619C87.2037 42.446 87.1722 42.245 87.1094 42.0591C87.0524 41.8732 86.9668 41.7109 86.8527 41.573C86.7386 41.4291 86.596 41.3151 86.4245 41.2312C86.2591 41.1472 86.0708 41.1021 85.8594 41.0961V44.2281C86.0708 44.2221 86.2591 44.1801 86.4245 44.1022C86.596 44.0179 86.7386 43.9071 86.8527 43.7692C86.9668 43.6249 87.0524 43.4602 87.1094 43.2739C87.1722 43.082 87.2037 42.8781 87.2037 42.6619ZM83.7876 42.6619C83.7876 42.8781 83.8161 43.082 83.8732 43.2739C83.9359 43.4602 84.0245 43.6249 84.1386 43.7692C84.2584 43.9071 84.4013 44.0179 84.5668 44.1022C84.7322 44.1801 84.9178 44.2221 85.1232 44.2281V41.0961C84.9121 41.1021 84.7238 41.1472 84.5581 41.2312C84.3926 41.3091 84.2527 41.4199 84.1386 41.5641C84.0245 41.7021 83.9359 41.8672 83.8732 42.0591C83.8161 42.245 83.7876 42.446 83.7876 42.6619Z" fill="white"/>
<path d="M93.2422 42.6733C93.2309 42.3548 93.1243 42.0918 92.9223 41.8845C92.72 41.6774 92.4309 41.5737 92.0549 41.5737C91.8807 41.5737 91.718 41.6056 91.5665 41.6696C91.4206 41.728 91.2915 41.8076 91.179 41.9085C91.0667 42.0094 90.9743 42.1262 90.9011 42.2592C90.8337 42.3919 90.7944 42.53 90.7832 42.6733H93.2422ZM94 42.9285C94 42.9709 94 43.0159 94 43.0637C94 43.1065 93.9973 43.1515 93.9917 43.1992H90.7832C90.7888 43.3692 90.8255 43.5287 90.8928 43.6774C90.9657 43.8207 91.0611 43.9456 91.179 44.0518C91.2971 44.158 91.4344 44.243 91.5919 44.307C91.7546 44.3707 91.9259 44.4025 92.1054 44.4025C92.386 44.4025 92.6246 44.3441 92.821 44.227C93.0233 44.1049 93.1778 43.9669 93.2844 43.8129L93.8485 44.1952C93.624 44.4769 93.3656 44.6814 93.0738 44.8089C92.7818 44.9363 92.4589 45 92.1054 45C91.8077 45 91.5298 44.9522 91.2717 44.8566C91.0136 44.7611 90.7888 44.6255 90.598 44.4503C90.4129 44.2751 90.2667 44.0653 90.1601 43.8207C90.0535 43.5765 90 43.3054 90 43.0081C90 42.7158 90.0508 42.4475 90.1518 42.2033C90.2584 41.9538 90.4043 41.7411 90.5895 41.5659C90.775 41.3854 90.9911 41.247 91.238 41.1515C91.4906 41.0506 91.7628 41 92.0549 41C92.3636 41 92.6388 41.0506 92.8801 41.1515C93.1214 41.247 93.3237 41.3826 93.4864 41.5578C93.6548 41.728 93.7812 41.9297 93.8653 42.1633C93.9551 42.3972 94 42.6521 94 42.9285Z" fill="white"/>
<path d="M100.387 42.0678C100.289 41.935 100.146 41.8288 99.9563 41.7492C99.7734 41.6642 99.575 41.6218 99.3615 41.6218C99.1358 41.6218 98.9313 41.6589 98.7483 41.7333C98.565 41.8023 98.4096 41.8979 98.2812 42.02C98.1531 42.1421 98.0526 42.2882 97.9791 42.4582C97.912 42.6283 97.8787 42.8089 97.8787 43C97.8787 43.1914 97.912 43.3719 97.9791 43.5418C98.0526 43.712 98.1531 43.8579 98.2812 43.9803C98.4096 44.1024 98.565 44.2005 98.7483 44.2751C98.9313 44.3441 99.1358 44.3785 99.3615 44.3785C99.5994 44.3785 99.8071 44.3388 99.9839 44.2589C100.167 44.1793 100.317 44.0731 100.432 43.9403L101 44.3866C100.811 44.5724 100.579 44.7211 100.304 44.8326C100.036 44.9444 99.7185 45 99.3525 45C99.0045 45 98.6841 44.9522 98.3913 44.8566C98.1043 44.7558 97.8571 44.6177 97.6498 44.4422C97.4485 44.2617 97.2896 44.0493 97.1737 43.8048C97.0578 43.5606 97 43.2923 97 43C97 42.708 97.0578 42.4397 97.1737 42.1952C97.2896 41.951 97.4485 41.7411 97.6498 41.5659C97.8571 41.3854 98.1043 41.247 98.3913 41.1515C98.6841 41.0506 99.0045 41 99.3525 41C99.6514 41 99.9502 41.0534 100.249 41.1596C100.548 41.2658 100.789 41.4197 100.972 41.6218L100.387 42.0678Z" fill="white"/>
<path d="M106.387 42.0678C106.289 41.935 106.146 41.8288 105.957 41.7492C105.773 41.6642 105.575 41.6218 105.361 41.6218C105.136 41.6218 104.931 41.6589 104.748 41.7333C104.565 41.8023 104.41 41.8979 104.282 42.02C104.153 42.1421 104.053 42.2882 103.979 42.4582C103.912 42.6283 103.879 42.8089 103.879 43C103.879 43.1914 103.912 43.3719 103.979 43.5418C104.053 43.712 104.153 43.8579 104.282 43.9803C104.41 44.1024 104.565 44.2005 104.748 44.2751C104.931 44.3441 105.136 44.3785 105.361 44.3785C105.6 44.3785 105.807 44.3388 105.984 44.2589C106.167 44.1793 106.317 44.0731 106.432 43.9403L107 44.3866C106.811 44.5724 106.579 44.7211 106.304 44.8326C106.036 44.9444 105.718 45 105.352 45C105.004 45 104.684 44.9522 104.391 44.8566C104.104 44.7558 103.857 44.6177 103.65 44.4422C103.448 44.2617 103.29 44.0493 103.174 43.8048C103.058 43.5606 103 43.2923 103 43C103 42.708 103.058 42.4397 103.174 42.1952C103.29 41.951 103.448 41.7411 103.65 41.5659C103.857 41.3854 104.104 41.247 104.391 41.1515C104.684 41.0506 105.004 41 105.352 41C105.651 41 105.951 41.0534 106.249 41.1596C106.549 41.2658 106.789 41.4197 106.973 41.6218L106.387 42.0678Z" fill="white"/>
<path d="M112.179 41.9999L109.821 45H109V41H109.821V43.9158L112.179 41H113V45H112.179V41.9999Z" fill="white"/>
<path d="M120.179 41.9999L117.821 45H117V41H117.821V43.9158L120.179 41H121V45H120.179V41.9999Z" fill="white"/>
<path d="M130.179 41.9999L127.821 45H127V41H127.821V43.9158L130.179 41H131V45H130.179V41.9999Z" fill="white"/>
<path d="M138 41H142V41.6304H140.402V45H139.512V41.6304H138V41Z" fill="white"/>
<path d="M147.242 42.6733C147.231 42.3548 147.124 42.0918 146.922 41.8845C146.72 41.6774 146.431 41.5737 146.055 41.5737C145.881 41.5737 145.718 41.6056 145.566 41.6696C145.42 41.728 145.291 41.8076 145.179 41.9085C145.067 42.0094 144.974 42.1262 144.901 42.2592C144.834 42.3919 144.794 42.53 144.783 42.6733H147.242ZM148 42.9285C148 42.9709 148 43.0159 148 43.0637C148 43.1065 147.997 43.1515 147.991 43.1992H144.783C144.789 43.3692 144.825 43.5287 144.892 43.6774C144.965 43.8207 145.061 43.9456 145.179 44.0518C145.297 44.158 145.434 44.243 145.592 44.307C145.754 44.3707 145.926 44.4025 146.105 44.4025C146.386 44.4025 146.625 44.3441 146.821 44.227C147.023 44.1049 147.177 43.9669 147.284 43.8129L147.848 44.1952C147.624 44.4769 147.366 44.6814 147.074 44.8089C146.782 44.9363 146.459 45 146.105 45C145.808 45 145.53 44.9522 145.271 44.8566C145.013 44.7611 144.789 44.6255 144.598 44.4503C144.413 44.2751 144.267 44.0653 144.16 43.8207C144.053 43.5765 144 43.3054 144 43.0081C144 42.7158 144.051 42.4475 144.152 42.2033C144.258 41.9538 144.404 41.7411 144.589 41.5659C144.775 41.3854 144.991 41.247 145.238 41.1515C145.491 41.0506 145.763 41 146.055 41C146.364 41 146.639 41.0506 146.88 41.1515C147.121 41.247 147.323 41.3826 147.486 41.5578C147.655 41.728 147.781 41.9297 147.865 42.1633C147.955 42.3972 148 42.6521 148 42.9285Z" fill="white"/>
<path d="M151.534 42.9244L150.106 41H151.037L152.008 42.4034L152.979 41H153.869L152.457 42.9076L154 45H153.061L151.992 43.4537L150.898 45H150L151.534 42.9244Z" fill="white"/>
<path d="M157.871 45H157V41H157.871V42.5799H160.129V41H161V45H160.129V43.21H157.871V45Z" fill="white"/>
<path d="M167 43C167 43.2923 166.948 43.5606 166.844 43.8048C166.745 44.0493 166.605 44.2617 166.423 44.4422C166.246 44.6177 166.036 44.7558 165.791 44.8566C165.547 44.9522 165.282 45 164.996 45C164.71 45 164.445 44.9522 164.201 44.8566C163.962 44.7558 163.751 44.6177 163.569 44.4422C163.392 44.2617 163.252 44.0493 163.148 43.8048C163.049 43.5606 163 43.2923 163 43C163 42.708 163.049 42.4397 163.148 42.1952C163.252 41.951 163.392 41.7411 163.569 41.5659C163.751 41.3854 163.962 41.247 164.201 41.1515C164.445 41.0506 164.71 41 164.996 41C165.282 41 165.547 41.0506 165.791 41.1515C166.036 41.247 166.246 41.3854 166.423 41.5659C166.605 41.7411 166.745 41.951 166.844 42.1952C166.948 42.4397 167 42.708 167 43ZM166.267 43C166.267 42.8089 166.236 42.6309 166.173 42.4663C166.116 42.2964 166.033 42.1502 165.924 42.0281C165.815 41.9004 165.682 41.8023 165.526 41.7333C165.37 41.6589 165.194 41.6218 164.996 41.6218C164.798 41.6218 164.622 41.6589 164.466 41.7333C164.31 41.8023 164.177 41.9004 164.068 42.0281C163.959 42.1502 163.876 42.2964 163.819 42.4663C163.762 42.6309 163.733 42.8089 163.733 43C163.733 43.1861 163.762 43.3638 163.819 43.534C163.876 43.6986 163.959 43.8448 164.068 43.9722C164.177 44.0943 164.31 44.1927 164.466 44.267C164.622 44.3413 164.798 44.3785 164.996 44.3785C165.194 44.3785 165.37 44.3413 165.526 44.267C165.682 44.1927 165.815 44.0943 165.924 43.9722C166.033 43.8448 166.116 43.6986 166.173 43.534C166.236 43.3638 166.267 43.1861 166.267 43Z" fill="white"/>
<path d="M173.203 45L172.037 41.9327L170.813 45H170L171.659 41H172.44L174 45H173.203Z" fill="white"/>
<path d="M180 43C180 43.2923 179.948 43.5606 179.844 43.8048C179.745 44.0493 179.605 44.2617 179.423 44.4422C179.246 44.6177 179.036 44.7558 178.791 44.8566C178.547 44.9522 178.282 45 177.996 45C177.71 45 177.445 44.9522 177.201 44.8566C176.962 44.7558 176.751 44.6177 176.569 44.4422C176.392 44.2617 176.252 44.0493 176.148 43.8048C176.049 43.5606 176 43.2923 176 43C176 42.708 176.049 42.4397 176.148 42.1952C176.252 41.951 176.392 41.7411 176.569 41.5659C176.751 41.3854 176.962 41.247 177.201 41.1515C177.445 41.0506 177.71 41 177.996 41C178.282 41 178.547 41.0506 178.791 41.1515C179.036 41.247 179.246 41.3854 179.423 41.5659C179.605 41.7411 179.745 41.951 179.844 42.1952C179.948 42.4397 180 42.708 180 43ZM179.267 43C179.267 42.8089 179.236 42.6309 179.173 42.4663C179.116 42.2964 179.033 42.1502 178.924 42.0281C178.815 41.9004 178.682 41.8023 178.526 41.7333C178.37 41.6589 178.194 41.6218 177.996 41.6218C177.798 41.6218 177.622 41.6589 177.466 41.7333C177.31 41.8023 177.177 41.9004 177.068 42.0281C176.959 42.1502 176.876 42.2964 176.819 42.4663C176.762 42.6309 176.733 42.8089 176.733 43C176.733 43.1861 176.762 43.3638 176.819 43.534C176.876 43.6986 176.959 43.8448 177.068 43.9722C177.177 44.0943 177.31 44.1927 177.466 44.267C177.622 44.3413 177.798 44.3785 177.996 44.3785C178.194 44.3785 178.37 44.3413 178.526 44.267C178.682 44.1927 178.815 44.0943 178.924 43.9722C179.033 43.8448 179.116 43.6986 179.173 43.534C179.236 43.3638 179.267 43.1861 179.267 43Z" fill="white"/>
<path d="M184.912 45H184V41H187V41.6304H184.912V45Z" fill="white"/>
<path d="M192.179 41.9999L189.821 45H189V41H189.821V43.9158L192.179 41H193V45H192.179V41.9999Z" fill="white"/>
<path d="M199.179 41.9999L196.821 45H196V41H196.821V43.9158L199.179 41H200V45H199.179V41.9999Z" fill="white"/>
<path fill-rule="evenodd" clip-rule="evenodd" d="M41.1725 0C45.4955 0 49 3.82545 49 8.54435V45.1595C48.7631 46.4927 47.3322 47.2803 46.0025 46.8271C45.3358 46.6 44.8685 46.1245 44.6004 45.4011L44.575 45.3306L44.5501 45.1676C44.5286 45.02 44.5174 44.9178 44.5165 44.8612C44.5105 43.8983 44.5071 42.9375 44.5065 41.9781C44.5123 39.3762 44.5098 39.2551 44.4992 36.657C44.4968 36.1207 44.3781 35.6805 44.1433 35.3362C42.929 33.5567 40.1236 34.3669 40.0997 36.5476C40.0875 37.6519 40.0903 37.8161 40.1078 41.9983C40.1184 43.0827 40.1169 44.1682 40.1036 45.255C40.0985 45.6277 40.1693 46.0139 40.3162 46.4144L40.3465 46.4948C40.5077 47.0772 40.7506 47.6147 41.0759 48.107C41.9101 49.3719 43.1047 50.3661 44.5308 50.881C45.2962 51.1573 46.0779 51.3125 46.8585 51.3269C45.4319 52.9729 43.4122 54 41.1725 54H40.9335C40.0479 53.4405 39.2337 52.7641 38.5164 51.9931C37.2025 50.5797 36.3062 48.9296 35.8276 47.0429C35.6774 46.4864 35.6026 45.9989 35.6035 45.581C35.6107 42.9031 35.6125 40.2252 35.6092 37.5479C35.618 34.5944 35.6177 31.6411 35.608 28.6885C35.6065 28.1537 35.5714 27.7768 35.5029 27.5576C35.3006 26.9075 34.8859 26.4432 34.2592 26.1646C33.0712 25.6368 31.6937 26.3037 31.3196 27.4556C31.2451 27.6854 31.2072 28.1307 31.2063 28.7914C31.2008 31.7324 31.2008 34.6733 31.2063 37.6139C31.2127 40.143 31.2127 42.672 31.2063 45.2008C31.2042 46.1772 31.3111 47.1372 31.5271 48.0805C31.9017 49.612 32.4418 50.9765 33.1467 52.1742C33.5244 52.8156 33.9421 53.4242 34.3994 54H26.678C26.7008 47.8503 26.7417 36.4338 26.7378 29.7653C26.737 29.3482 26.7642 28.7514 26.7187 28.2339C26.7294 28.1319 26.7348 28.0248 26.7348 27.9127C26.7348 26.5795 26.7343 22.12 26.7333 19.4146C26.7333 18.6309 26.7583 18.1344 26.4044 17.591C25.9565 16.9025 25.3263 16.5638 24.5137 16.5748C23.5695 16.5871 22.7274 17.1846 22.4322 18.0391C22.3602 18.2479 22.3243 18.661 22.3243 19.2783C22.3243 21.4767 22.3262 26.1109 22.3301 28.301C22.2861 28.711 22.3094 29.1613 22.3094 29.5055C22.3088 36.6088 22.2656 47.9 22.2394 54H14.8565C15.2828 53.4595 15.674 52.8903 16.0301 52.2926C16.7413 51.0989 17.286 49.7385 17.6639 48.2122C17.8817 47.2718 17.9896 46.3152 17.9877 45.3418C17.9813 42.8212 17.9813 40.3002 17.9877 37.779C17.9931 34.8481 17.9931 31.9168 17.9877 28.9852C17.9867 28.3266 17.9486 27.8827 17.8732 27.6537C17.4958 26.5055 16.1064 25.8407 14.9082 26.3668C14.2757 26.6444 13.8575 27.1073 13.6533 27.7554C13.5843 27.9738 13.5491 28.3496 13.5476 28.8827C13.5378 31.8258 13.5373 34.7694 13.5461 37.7133C13.5427 40.3822 13.5446 43.0513 13.552 45.7208C13.5529 46.1372 13.4777 46.6229 13.3259 47.1778C12.8433 49.0585 11.9391 50.7033 10.6136 52.1121C9.93818 52.8295 9.17745 53.4649 8.35248 54H7.8275C5.6428 54 3.66739 53.0226 2.24747 51.4472C3.01871 51.4273 3.79085 51.2733 4.54709 51.0037C5.98546 50.4906 7.19036 49.4996 8.03181 48.2387C8.33928 47.7786 8.57411 47.2791 8.73616 46.7398L8.76766 46.6313L8.79829 46.5515C8.94641 46.1522 9.01783 45.7672 9.01277 45.396C8.99905 44.3123 8.99769 43.2303 9.00847 42.1496C9.0261 37.9806 9.02879 37.817 9.01656 36.7164C8.99226 34.5425 6.16238 33.7351 4.93765 35.5091C4.70075 35.852 4.58105 36.2909 4.5786 36.8254C4.56781 39.4153 4.56548 39.5356 4.57136 42.1294C4.57087 43.0854 4.56739 44.0435 4.56103 45.0034C4.5603 45.0595 4.54912 45.1613 4.52747 45.3086L4.50233 45.471C4.23653 46.2315 3.75656 46.7289 3.0625 46.9627C1.59471 47.4571 0.0043032 46.4704 0.0043032 44.9109V41.4837C0.00399473 41.4292 0.00236028 41.3759 0 41.3234V8.54435C0 3.82545 3.50452 0 7.8275 0H41.1725ZM6.73516 27.5075C5.99655 27.5075 5.28816 27.7959 4.76588 28.3093C4.24359 28.8226 3.95017 29.5189 3.95014 30.2449C3.95014 30.9707 4.24356 31.6673 4.76588 32.1807C5.28816 32.6938 5.99655 32.9822 6.73516 32.9822C7.47381 32.9822 8.18219 32.6938 8.70448 32.1807C9.2268 31.6673 9.52021 30.9707 9.52021 30.2449C9.52018 29.5189 9.22677 28.8226 8.70448 28.3093C8.18219 27.7959 7.47381 27.5075 6.73516 27.5075ZM42.3614 27.3089C41.6293 27.3089 40.9269 27.5982 40.4089 28.1132C39.8913 28.6282 39.6005 29.3268 39.6005 30.0552C39.6005 30.7836 39.8913 31.482 40.4089 31.9969C40.9269 32.5121 41.6293 32.8014 42.3614 32.8014C43.0938 32.8014 43.7959 32.5121 44.3136 31.9969C44.8315 31.482 45.1223 30.7836 45.1223 30.0552C45.1223 29.3268 44.8315 28.6282 44.3136 28.1132C43.7959 27.5982 43.0938 27.3089 42.3614 27.3089ZM16.2184 19.2044C15.8569 19.1402 15.4863 19.1467 15.1279 19.2236C14.7696 19.3004 14.4304 19.446 14.1298 19.6521C13.8292 19.8582 13.5731 20.1208 13.376 20.4248C13.179 20.7288 13.0447 21.0684 12.9812 21.424C12.9176 21.7796 12.926 22.1444 13.0056 22.4975C13.0852 22.8506 13.2346 23.1852 13.4452 23.482C13.6559 23.7789 13.9237 24.0323 14.2334 24.2277C14.5431 24.423 14.8886 24.5566 15.2502 24.6208C15.6117 24.6849 15.9823 24.6784 16.3406 24.6016C16.6989 24.5248 17.038 24.3791 17.3386 24.173C17.6392 23.967 17.8954 23.7044 18.0925 23.4003C18.2896 23.0963 18.4236 22.7568 18.4872 22.4011C18.5508 22.0455 18.5425 21.6807 18.4629 21.3276C18.3833 20.9745 18.2338 20.6398 18.0231 20.3429C17.8125 20.0461 17.5446 19.7928 17.2349 19.5975C16.9253 19.4021 16.5799 19.2685 16.2184 19.2044ZM34.0411 18.9982C33.6858 18.9212 33.3187 18.9145 32.9601 18.9789C32.6017 19.0433 32.2592 19.1773 31.9523 19.3734C31.6452 19.5694 31.3799 19.8235 31.1709 20.1212C30.9622 20.4191 30.8137 20.7547 30.735 21.109C30.6559 21.4632 30.6478 21.8293 30.7108 22.1861C30.7738 22.5428 30.907 22.8834 31.1021 23.1884C31.2975 23.4934 31.5516 23.7569 31.8497 23.9636C32.1477 24.1704 32.4839 24.3165 32.8389 24.3936C33.1942 24.4707 33.5616 24.4771 33.92 24.4127C34.2783 24.3484 34.6209 24.2145 34.928 24.0184C35.2348 23.8224 35.5005 23.5682 35.7092 23.2704C35.9182 22.9726 36.0663 22.6369 36.1453 22.2827C36.2241 21.9284 36.2323 21.5625 36.1693 21.2057C36.1063 20.8489 35.9733 20.5082 35.7779 20.2032C35.5826 19.8982 35.3284 19.6349 35.0307 19.4282C34.7326 19.2214 34.3964 19.0753 34.0411 18.9982ZM24.3184 9.46754C23.569 9.46754 22.8505 9.76018 22.3206 10.281C21.7908 10.8018 21.493 11.5081 21.493 12.2446C21.493 12.9812 21.7908 13.6875 22.3206 14.2083C22.8505 14.7291 23.569 15.0217 24.3184 15.0218C25.0677 15.0218 25.7864 14.7291 26.3162 14.2083C26.8461 13.6875 27.1438 12.9812 27.1438 12.2446C27.1438 11.5081 26.8461 10.8018 26.3162 10.281C25.7864 9.76015 25.0677 9.46754 24.3184 9.46754Z" fill="white"/>
<path d="M71.5151 9.00098C74.451 9.0039 77.465 9.01271 80.5572 9.02738C80.6747 9.02796 80.7871 9.0757 80.8702 9.16023C80.953 9.24472 80.9997 9.3591 80.9997 9.47832C81.0012 19.4826 80.9976 27.145 80.9889 32.4653C80.9889 32.8592 80.6092 33.0041 80.2275 32.9999C79.6762 32.9924 78.6479 32.9888 77.1424 32.9888C76.7837 32.9888 76.6052 32.7945 76.6067 32.4061C76.6139 24.9386 76.6255 18.6057 76.6414 13.407C76.6411 13.3724 76.6312 13.3387 76.6127 13.3102C76.5941 13.2816 76.5678 13.2594 76.537 13.2464C76.5012 13.2303 76.4438 13.2222 76.3657 13.2222C74.0749 13.2296 72.4565 13.2325 71.5106 13.231C70.5647 13.231 68.9472 13.2259 66.6575 13.2156C66.578 13.2142 66.5203 13.2215 66.4842 13.2376C66.4534 13.2506 66.4271 13.2728 66.4085 13.3014C66.39 13.33 66.3801 13.3636 66.3798 13.3982C66.3873 18.5969 66.3879 24.9298 66.3822 32.397C66.3837 32.7858 66.2049 32.9795 65.8462 32.978C64.3407 32.9765 63.3124 32.9786 62.7614 32.9846C62.3797 32.9888 62 32.8415 62 32.4479C62 27.1274 62.0093 19.465 62.0281 9.46073C62.0287 9.34151 62.0759 9.22737 62.159 9.14327C62.2424 9.05917 62.3551 9.01196 62.4729 9.01196C65.5634 9.00171 68.5777 8.99804 71.5151 9.00098Z" fill="white"/>
<path d="M175.447 16.7719C175.429 16.7821 175.415 16.7961 175.404 16.8137C172.817 21.3548 170.859 24.7256 169.533 26.9258C168.469 28.691 167.368 30.5757 166.231 32.5797C166.163 32.6996 166.064 32.7996 165.944 32.8696C165.823 32.9392 165.686 32.9765 165.547 32.9774C164.995 32.9816 163.688 32.9831 161.627 32.9816C161.093 32.9816 161.011 32.5665 161.011 32.1006C160.993 24.7497 160.997 17.3088 161.022 9.77773C161.026 8.87684 161.574 9.00647 162.287 9.00647C162.844 9.00792 163.715 9.01524 164.899 9.02843C165.288 9.03285 165.483 9.20423 165.484 9.54261C165.515 17.4194 165.492 22.8439 165.415 25.8162C165.415 25.8277 165.418 25.8391 165.423 25.8495C165.428 25.8598 165.436 25.8689 165.445 25.8759C165.454 25.8829 165.465 25.8878 165.476 25.89C165.488 25.8922 165.5 25.8918 165.511 25.8887C165.594 25.8653 165.665 25.7993 165.724 25.6909C167.436 22.5619 170.505 17.1388 174.931 9.42178C174.995 9.31032 175.088 9.21766 175.2 9.1532C175.312 9.08874 175.439 9.05477 175.569 9.0548C176.784 9.05333 178.066 9.04747 179.413 9.03723C179.806 9.03285 180.002 9.22399 180 9.61073C179.984 14.7511 179.984 22.2579 180 32.1313C180 33.1159 179.444 32.9927 178.653 32.9972C177.219 33.0029 176.344 32.9933 176.027 32.9687C175.689 32.9407 175.519 32.7545 175.518 32.4103C175.502 27.3301 175.516 22.1385 175.56 16.8356C175.561 16.8223 175.557 16.8091 175.551 16.7975C175.544 16.7858 175.535 16.7762 175.523 16.7696C175.511 16.763 175.498 16.7597 175.484 16.7602C175.471 16.7605 175.458 16.7646 175.447 16.7719Z" fill="white"/>
<path d="M190.001 9C192.772 9 195.57 9.00367 198.395 9.01102C198.803 9.01102 199.004 9.23488 199 9.68257C198.986 10.9303 198.978 11.9248 198.978 12.6661C198.977 13.0272 198.793 13.2136 198.428 13.2253C197.741 13.2459 195.702 13.2459 192.311 13.2253C192.277 13.2253 192.244 13.2388 192.22 13.2627C192.196 13.2867 192.182 13.3192 192.182 13.353C192.175 19.5886 192.178 25.9643 192.191 32.4802C192.191 32.7974 192.004 32.9624 191.63 32.9756C191.194 32.9919 190.652 33 190.005 33C189.357 33 188.816 32.9925 188.381 32.978C188.005 32.9633 187.818 32.7974 187.818 32.4802C187.829 25.9643 187.83 19.5886 187.82 13.353C187.82 13.3192 187.806 13.2867 187.782 13.2627C187.758 13.2388 187.726 13.2253 187.692 13.2253C184.301 13.2473 182.261 13.2481 181.574 13.2275C181.209 13.2173 181.026 13.0316 181.024 12.6705C181.024 11.9292 181.016 10.9347 181 9.68699C180.996 9.23927 181.197 9.01469 181.605 9.01321C184.43 9.0059 187.229 9.00147 190.001 9Z" fill="white"/>
<path d="M116.759 9.00258C120.073 9.07305 123.224 10.4579 125.519 12.8512C127.814 15.2446 129.066 18.4509 128.998 21.7653C128.964 23.4063 128.606 25.0242 127.947 26.527C127.288 28.0298 126.339 29.3883 125.155 30.5241C123.97 31.6599 122.574 32.5512 121.045 33.1471C119.515 33.743 117.883 34.0314 116.242 33.9967C112.928 33.9261 109.776 32.5415 107.481 30.1481C105.186 27.7547 103.934 24.5483 104.003 21.234C104.036 19.593 104.394 17.9751 105.053 16.4723C105.713 14.9695 106.661 13.611 107.845 12.4752C109.03 11.3395 110.427 10.448 111.956 9.85219C113.485 9.2564 115.117 8.96771 116.759 9.00258ZM116.709 13.0319C114.596 12.8424 112.494 13.5007 110.867 14.861C109.24 16.2213 108.22 18.1726 108.032 20.2858C107.844 22.399 108.504 24.5013 109.865 26.1295C111.227 27.7578 113.18 28.7789 115.293 28.9684C117.406 29.1578 119.507 28.4996 121.134 27.1393C122.762 25.779 123.782 23.8277 123.969 21.7145C124.157 19.6013 123.498 17.499 122.136 15.8707C120.775 14.2425 118.822 13.2214 116.709 13.0319Z" fill="white"/>
<path d="M86.0391 9.00783C89.5004 8.99464 92.14 8.99805 93.958 9.01857C96.4108 9.0479 98.371 9.84282 99.8369 11.4024C102.54 14.2826 102.762 19.0688 100.202 22.1445C98.3928 24.3165 96.0555 25.104 93.2207 25.0293C92.5628 25.0117 91.3006 25.0039 89.4365 25.0069C89.4126 25.007 89.3899 25.0171 89.373 25.0342C89.356 25.0515 89.3457 25.0751 89.3457 25.0996C89.3239 27.2321 89.3194 29.6475 89.3311 32.3457C89.3355 33.0493 88.7832 32.9813 88.1533 32.9834C86.6269 32.9894 85.8035 32.9945 85.6836 32.999C85.1017 33.0163 85 32.6669 85 32.126C85 20.6318 85.0059 13.1242 85.0176 9.60353C85.0197 8.9528 85.4829 9.01002 86.0391 9.00783ZM89.1143 13C89.0839 13 89.0545 13.014 89.0332 13.0381C89.012 13.0622 89 13.0949 89 13.1289V20.8711C89 20.9052 89.012 20.9378 89.0332 20.9619C89.0545 20.9861 89.0839 21 89.1143 21H93.4482C94.3902 21 95.2939 20.5895 95.96 19.8584C96.626 19.1273 96.9999 18.1355 97 17.1016V16.8985C96.9999 15.8646 96.626 14.8727 95.96 14.1416C95.2939 13.4106 94.3902 13 93.4482 13H89.1143Z" fill="white"/>
<path d="M145.783 8.99978C146.382 8.99764 146.602 9.14193 146.604 9.74197C146.604 10.2804 146.59 10.9603 146.563 11.781C146.562 11.7978 146.566 11.8143 146.572 11.8299C146.578 11.8455 146.587 11.8601 146.599 11.8718C146.611 11.8836 146.626 11.8925 146.642 11.8982C146.658 11.9039 146.675 11.9063 146.692 11.9051C149.979 11.6607 152.874 12.3391 155.244 14.74C157.343 16.8674 158.243 19.4884 157.944 22.6023C157.506 27.1292 153.977 30.7418 149.314 31.1521C148.563 31.2178 147.693 31.2389 146.706 31.2156C146.691 31.215 146.676 31.2171 146.661 31.2224C146.647 31.2278 146.634 31.2365 146.623 31.2468C146.612 31.2576 146.604 31.2709 146.598 31.2849C146.592 31.2988 146.589 31.3138 146.589 31.3289V33.5144C146.589 33.578 146.576 33.6411 146.552 33.7C146.528 33.759 146.492 33.8131 146.447 33.8582C146.402 33.9034 146.349 33.9392 146.29 33.9636C146.232 33.9881 146.169 34.0008 146.105 34.0008H142.786C142.658 34.0008 142.535 33.9496 142.446 33.8592C142.356 33.7688 142.305 33.6461 142.305 33.5183V31.4051C142.305 31.3813 142.3 31.3577 142.291 31.3357C142.282 31.3141 142.269 31.294 142.252 31.2771C142.235 31.2605 142.215 31.247 142.193 31.2381C142.171 31.2288 142.146 31.2244 142.122 31.2244C141.063 31.2271 140.445 31.2271 140.269 31.2244C135.38 31.1412 131.264 27.243 131.016 22.4041C130.772 17.6415 133.337 13.6929 137.965 12.2566C139.266 11.8528 140.845 11.846 142.161 11.8787C142.178 11.879 142.195 11.8759 142.21 11.8699C142.225 11.8639 142.239 11.8548 142.25 11.8435C142.262 11.8322 142.272 11.8193 142.279 11.8045C142.285 11.7895 142.287 11.7728 142.287 11.7566L142.305 9.50662C142.306 9.43963 142.32 9.37282 142.346 9.3113C142.372 9.24988 142.411 9.19468 142.459 9.14822C142.507 9.10174 142.564 9.06508 142.626 9.04079C142.688 9.01655 142.755 9.00491 142.822 9.00662C142.825 9.00662 143.812 9.00414 145.783 8.99978ZM140.327 15.9998C138.914 15.9998 137.559 16.5728 136.56 17.5926C135.561 18.6126 135 19.9967 135 21.4392V21.5613C135 23.0037 135.561 24.3871 136.56 25.407C137.559 26.4269 138.914 26.9997 140.327 26.9998H141.866C141.901 26.9998 141.935 26.9854 141.96 26.9597C141.986 26.9341 142 26.8993 142 26.8631V16.1375C142 16.1011 141.986 16.0656 141.96 16.0398C141.935 16.0143 141.901 15.9998 141.866 15.9998H140.327ZM147.121 15.9998C147.089 15.9998 147.058 16.0127 147.036 16.0359C147.013 16.0592 147 16.0909 147 16.1238V26.8758C147 26.9086 147.013 26.9404 147.036 26.9636C147.058 26.9869 147.089 26.9998 147.121 26.9998H148.792C150.174 26.9998 151.498 26.4346 152.475 25.4285C153.452 24.4224 154 23.0574 154 21.6345V21.365C154 19.9422 153.452 18.5772 152.475 17.5711C151.498 16.565 150.174 15.9998 148.792 15.9998H147.121Z" fill="white"/>
</g>
<defs>
<clipPath id="clip0_55_931">
<rect width="200" height="54" fill="white"/>
</clipPath>
</defs>
</svg>
