<svg width="50" height="50" viewBox="0 0 50 50" fill="none" xmlns="http://www.w3.org/2000/svg">
<path d="M44.9999 40.6867H8.71903C6.67409 40.6867 4.96156 42.3647 5.00066 44.4146C5.03859 46.4012 6.65659 48 8.64707 48H45C45 48 41.9465 44.8111 44.9999 40.6867ZM44.9999 40.6867V1H11.4324C7.87993 1 5.00007 3.88748 5.00007 7.44934V44.3434" stroke="#0F58D5" stroke-width="2" stroke-miterlimit="10" stroke-linecap="round" stroke-linejoin="round"/>
<path d="M12 41V1" stroke="#0F58D5" stroke-width="2" stroke-miterlimit="10" stroke-linecap="round" stroke-linejoin="round"/>
<path d="M36 10H20" stroke="#0F58D5" stroke-width="2" stroke-miterlimit="10" stroke-linecap="round" stroke-linejoin="round"/>
<path d="M28 8V24" stroke="#0F58D5" stroke-width="2" stroke-miterlimit="10" stroke-linecap="round" stroke-linejoin="round"/>
<path d="M20 19C18.3432 19 17 17.7213 17 16.1441C17 15.451 17.1872 14.7695 17.5436 14.1651L20 10L22.4564 14.1651C22.8128 14.7695 23 15.451 23 16.1441C23 17.7213 21.6568 19 20 19Z" stroke="#0F58D5" stroke-width="2" stroke-miterlimit="10" stroke-linecap="round" stroke-linejoin="round"/>
<path d="M36 19C34.3432 19 33 17.7213 33 16.1441C33 15.451 33.1872 14.7695 33.5436 14.1651L36 10L38.4564 14.1651C38.8128 14.7695 39 15.451 39 16.1441C39 17.7213 37.6568 19 36 19Z" stroke="#0F58D5" stroke-width="2" stroke-miterlimit="10" stroke-linecap="round" stroke-linejoin="round"/>
<path d="M32.9999 29H22V26.7866C22 25.2477 23.2887 24 24.8784 24H30.1216C31.7112 24 33 25.2476 33 26.7866L32.9999 29Z" stroke="#0F58D5" stroke-width="2" stroke-miterlimit="10" stroke-linecap="round" stroke-linejoin="round"/>
<path d="M33 35H22" stroke="#0F58D5" stroke-width="2" stroke-miterlimit="10" stroke-linecap="round" stroke-linejoin="round"/>
</svg>
