<svg width="50" height="50" viewBox="0 0 50 50" fill="none" xmlns="http://www.w3.org/2000/svg">
<mask id="mask0_55_637" style="mask-type:luminance" maskUnits="userSpaceOnUse" x="0" y="0" width="50" height="50">
<path d="M0 3.8147e-06H50V50H0V3.8147e-06Z" fill="white"/>
</mask>
<g mask="url(#mask0_55_637)">
<path d="M39 25.5C39 33.5082 32.5082 40 24.5 40C16.4918 40 10 33.5082 10 25.5C10 17.4918 16.4918 11 24.5 11C32.5082 11 39 17.4918 39 25.5Z" stroke="#0F58D5" stroke-width="2" stroke-miterlimit="10" stroke-linecap="round" stroke-linejoin="round"/>
<path d="M32 21L23 30L17 24" stroke="#0F58D5" stroke-width="2" stroke-miterlimit="10" stroke-linecap="round" stroke-linejoin="round"/>
<path d="M22.6011 2.69842C23.6943 1.76719 25.3015 1.76719 26.3947 2.69842L30.1956 6.05326L36.6277 5.55547C38.0594 5.4447 39.3598 6.38948 39.6967 7.78544L40.9863 13.1267L46.6062 16.491C47.8295 17.243 48.3262 18.7717 47.7784 20.0991L45.5582 25.4795L47.7784 30.8598C48.3262 32.1873 47.8295 33.7161 46.6062 34.4681L40.9863 37.8324L39.6967 43.1736C39.3598 44.5695 38.0594 45.5143 36.6277 45.4036L30.2585 44.9106L26.3947 48.3016C25.3015 49.2328 23.6943 49.2328 22.6011 48.3016L18.7373 44.9106L12.3681 45.4036C10.9364 45.5143 9.63601 44.5695 9.29904 43.1736L8.00432 37.8112L2.39388 34.4681C1.17043 33.7161 0.673759 32.1873 1.22162 30.8598L3.44173 25.4795L1.22162 20.0991C0.673759 18.7717 1.17043 17.243 2.39388 16.491L7.52344 13.4433L9.29904 7.78544C9.63601 6.38948 10.9364 5.4447 12.3681 5.55547L18.8003 6.05326L22.6011 2.69842Z" stroke="#0F58D5" stroke-width="2" stroke-miterlimit="10" stroke-linecap="round" stroke-linejoin="round"/>
</g>
</svg>
