<svg width="80" height="80" viewBox="0 0 80 80" fill="none" xmlns="http://www.w3.org/2000/svg">
<g clip-path="url(#clip0_55_1087)">
<path d="M68.2842 11.7156C60.7292 4.16078 50.6844 0 40 0C29.3155 0 19.2705 4.16078 11.7156 11.7156C4.16063 19.2706 0 29.3156 0 40C0 50.6844 4.16063 60.7292 11.7156 68.2842C19.2706 75.8392 29.3155 80 40 80C50.6844 80 60.7292 75.8392 68.2842 68.2842C75.8392 60.7292 80 50.6844 80 40C80 29.3156 75.8392 19.2708 68.2842 11.7156ZM40 75.3125C20.5286 75.3125 4.6875 59.4714 4.6875 40C4.6875 20.5286 20.5286 4.6875 40 4.6875C59.4714 4.6875 75.3125 20.5286 75.3125 40C75.3125 59.4714 59.4714 75.3125 40 75.3125Z" fill="#0F58D5"/>
<path d="M59.3065 26.6852C58.3819 25.7716 56.8826 25.7716 55.9581 26.6853L35.0488 47.3505L24.0421 36.4723C23.1175 35.5585 21.6182 35.5585 20.6935 36.4723C19.7688 37.386 19.7688 38.8678 20.6935 39.7817L33.3745 52.3146C33.8368 52.7716 34.4428 53 35.0487 53C35.6545 53 36.2607 52.7714 36.7229 52.3146L59.3065 29.9947C60.2312 29.0809 60.2312 27.5991 59.3065 26.6852Z" fill="#0F58D5"/>
</g>
<defs>
<clipPath id="clip0_55_1087">
<rect width="80" height="80" fill="white"/>
</clipPath>
</defs>
</svg>
