<svg width="40" height="40" viewBox="0 0 40 40" fill="none" xmlns="http://www.w3.org/2000/svg">
<g clip-path="url(#clip0_55_408)">
<path d="M38.9694 12.588C37.5986 11.2173 35.368 11.2173 33.9968 12.5884C33.575 13.0105 30.8823 15.7052 30.4709 16.117V6.83016C30.4709 5.89109 30.1052 5.00828 29.4411 4.3443L26.1264 1.02969C25.4623 0.365625 24.5794 0 23.6403 0H3.51587C1.57722 0 0 1.57711 0 3.51562V36.4844C0 38.4229 1.57722 40 3.51587 40H26.955C28.8937 40 30.4709 38.4229 30.4709 36.4844V26.0649L38.9693 17.5599C40.3434 16.186 40.3437 13.9621 38.9694 12.588ZM23.4392 2.34375C23.6607 2.34375 24.0873 2.30539 24.469 2.68695L27.7838 6.00156C28.1557 6.37352 28.1271 6.78109 28.1271 7.03125H23.4392V2.34375ZM28.127 36.4844C28.127 37.1305 27.6013 37.6562 26.955 37.6562H3.51587C2.86966 37.6562 2.34392 37.1305 2.34392 36.4844V3.51562C2.34392 2.86945 2.86966 2.34375 3.51587 2.34375H21.0952V8.20312C21.0952 8.85031 21.62 9.375 22.2672 9.375H28.127V18.4627C28.127 18.4627 24.6694 21.923 24.6692 21.9231L23.0126 23.5797C22.884 23.7083 22.787 23.8652 22.7295 24.0377L21.072 29.0096C20.9316 29.4307 21.0413 29.895 21.3552 30.2088C21.6695 30.5231 22.134 30.6322 22.5545 30.492L27.5267 28.8347C27.6993 28.7772 27.8562 28.6802 27.9848 28.5516L28.127 28.4094V36.4844ZM25.4987 24.4084L27.1561 26.0656L26.523 26.6987L24.0369 27.5273L24.8656 25.0413L25.4987 24.4084ZM28.8131 24.408L27.1557 22.7507C28.0383 21.8675 31.958 17.9447 32.7893 17.1127L34.4467 18.77L28.8131 24.408ZM37.3116 15.903L36.1035 17.112L34.4461 15.4548L35.6546 14.2453C36.1118 13.7884 36.8552 13.7884 37.3121 14.2453C37.7689 14.7023 37.7713 15.4432 37.3116 15.903Z" fill="#0F58D5"/>
<path d="M22.8125 12H6.1875C5.53168 12 5 12.4477 5 13C5 13.5523 5.53168 14 6.1875 14H22.8125C23.4683 14 24 13.5523 24 13C24 12.4477 23.4683 12 22.8125 12Z" fill="#0F58D5"/>
<path d="M17.8333 16H6.16667C5.52236 16 5 16.4477 5 17C5 17.5523 5.52236 18 6.16667 18H17.8333C18.4776 18 19 17.5523 19 17C19 16.4477 18.4776 16 17.8333 16Z" fill="#0F58D5"/>
<path d="M17.8333 21H6.16667C5.52236 21 5 21.4477 5 22C5 22.5523 5.52236 23 6.16667 23H17.8333C18.4776 23 19 22.5523 19 22C19 21.4477 18.4776 21 17.8333 21Z" fill="#0F58D5"/>
<path d="M17.8333 26H6.16667C5.52236 26 5 26.4477 5 27C5 27.5523 5.52236 28 6.16667 28H17.8333C18.4776 28 19 27.5523 19 27C19 26.4477 18.4776 26 17.8333 26Z" fill="#0F58D5"/>
<path d="M21.875 33H15.125C14.5037 33 14 33.4477 14 34C14 34.5523 14.5037 35 15.125 35H21.875C22.4963 35 23 34.5523 23 34C23 33.4477 22.4963 33 21.875 33Z" fill="#0F58D5"/>
</g>
<defs>
<clipPath id="clip0_55_408">
<rect width="40" height="40" fill="white"/>
</clipPath>
</defs>
</svg>
