<svg width="40" height="40" viewBox="0 0 40 40" fill="none" xmlns="http://www.w3.org/2000/svg">
<g clip-path="url(#clip0_55_433)">
<mask id="mask0_55_433" style="mask-type:luminance" maskUnits="userSpaceOnUse" x="0" y="0" width="40" height="40">
<path d="M0 3.8147e-06H40V40H0V3.8147e-06Z" fill="white"/>
</mask>
<g mask="url(#mask0_55_433)">
<path d="M5.8 6H4.2C2.43272 6 1 7.49242 1 9.33333V11H9V9.33333C9 7.49242 7.56728 6 5.8 6Z" stroke="#0F58D5" stroke-width="2" stroke-miterlimit="10" stroke-linecap="round" stroke-linejoin="round"/>
<path d="M8 4C8 5.65686 6.65686 7 5 7C3.34314 7 2 5.65686 2 4C2 2.34314 3.34314 1 5 1C6.65686 1 8 2.34314 8 4Z" stroke="#0F58D5" stroke-width="2" stroke-miterlimit="10" stroke-linecap="round" stroke-linejoin="round"/>
<path d="M20.8 20H19.2C17.4327 20 16 21.4924 16 23.3333V25H24V23.3333C24 21.4924 22.5673 20 20.8 20Z" stroke="#0F58D5" stroke-width="2" stroke-miterlimit="10" stroke-linecap="round" stroke-linejoin="round"/>
<path d="M23 17C23 18.6569 21.6569 20 20 20C18.3431 20 17 18.6569 17 17C17 15.3431 18.3431 14 20 14C21.6569 14 23 15.3431 23 17Z" stroke="#0F58D5" stroke-width="2" stroke-miterlimit="10" stroke-linecap="round" stroke-linejoin="round"/>
<path d="M35.8 6H34.2C32.4327 6 31 7.49242 31 9.33333V11H39V9.33333C39 7.49242 37.5673 6 35.8 6Z" stroke="#0F58D5" stroke-width="2" stroke-miterlimit="10" stroke-linecap="round" stroke-linejoin="round"/>
<path d="M38 4C38 5.65686 36.6569 7 35 7C33.3431 7 32 5.65686 32 4C32 2.34314 33.3431 1 35 1C36.6569 1 38 2.34314 38 4Z" stroke="#0F58D5" stroke-width="2" stroke-miterlimit="10" stroke-linecap="round" stroke-linejoin="round"/>
<path d="M35.8 34H34.2C32.4327 34 31 35.4924 31 37.3333V39H39V37.3333C39 35.4924 37.5673 34 35.8 34Z" stroke="#0F58D5" stroke-width="2" stroke-miterlimit="10" stroke-linecap="round" stroke-linejoin="round"/>
<path d="M38 31C38 32.6569 36.6569 34 35 34C33.3431 34 32 32.6569 32 31C32 29.3431 33.3431 28 35 28C36.6569 28 38 29.3431 38 31Z" stroke="#0F58D5" stroke-width="2" stroke-miterlimit="10" stroke-linecap="round" stroke-linejoin="round"/>
<path d="M30 20C30 25.5229 25.5229 30 20 30C14.4771 30 10 25.5229 10 20C10 14.4772 14.4771 10 20 10C25.5229 10 30 14.4772 30 20Z" stroke="#0F58D5" stroke-width="2" stroke-miterlimit="10" stroke-linecap="round" stroke-linejoin="round"/>
<path d="M11.6328 25L1.69734 34.9353C0.767555 35.8651 0.767555 37.3726 1.69734 38.3025C2.6272 39.2323 4.13445 39.2326 5.06423 38.3028C7.6073 35.7597 12.4066 30.9607 15 28.3672" stroke="#0F58D5" stroke-width="2" stroke-miterlimit="10" stroke-linecap="round" stroke-linejoin="round"/>
</g>
</g>
<defs>
<clipPath id="clip0_55_433">
<rect width="40" height="40" fill="white"/>
</clipPath>
</defs>
</svg>
