<svg width="40" height="40" viewBox="0 0 40 40" fill="none" xmlns="http://www.w3.org/2000/svg">
<path d="M13 12H25" stroke="#0F58D5" stroke-width="2" stroke-miterlimit="10" stroke-linecap="round" stroke-linejoin="round"/>
<path d="M13 17H25" stroke="#0F58D5" stroke-width="2" stroke-miterlimit="10" stroke-linecap="round" stroke-linejoin="round"/>
<path d="M13 33H18" stroke="#0F58D5" stroke-width="2" stroke-miterlimit="10" stroke-linecap="round" stroke-linejoin="round"/>
<mask id="mask0_55_493" style="mask-type:luminance" maskUnits="userSpaceOnUse" x="0" y="0" width="40" height="40">
<path d="M0 3.8147e-06H40V40H0V3.8147e-06Z" fill="white"/>
</mask>
<g mask="url(#mask0_55_493)">
<path d="M24 1L30 7H24V1Z" stroke="#0F58D5" stroke-width="2" stroke-miterlimit="10" stroke-linecap="round" stroke-linejoin="round"/>
</g>
<path d="M13 7H19" stroke="#0F58D5" stroke-width="2" stroke-miterlimit="10" stroke-linecap="round" stroke-linejoin="round"/>
<path d="M7 7H9" stroke="#0F58D5" stroke-width="2" stroke-miterlimit="10" stroke-linecap="round" stroke-linejoin="round"/>
<path d="M7 12H9" stroke="#0F58D5" stroke-width="2" stroke-miterlimit="10" stroke-linecap="round" stroke-linejoin="round"/>
<path d="M7 17H9" stroke="#0F58D5" stroke-width="2" stroke-miterlimit="10" stroke-linecap="round" stroke-linejoin="round"/>
<path d="M7 23H9" stroke="#0F58D5" stroke-width="2" stroke-miterlimit="10" stroke-linecap="round" stroke-linejoin="round"/>
<path d="M7 28H9" stroke="#0F58D5" stroke-width="2" stroke-miterlimit="10" stroke-linecap="round" stroke-linejoin="round"/>
<path d="M7 33H9" stroke="#0F58D5" stroke-width="2" stroke-miterlimit="10" stroke-linecap="round" stroke-linejoin="round"/>
<mask id="mask1_55_493" style="mask-type:luminance" maskUnits="userSpaceOnUse" x="0" y="0" width="40" height="40">
<path d="M0 3.8147e-06H40V40H0V3.8147e-06Z" fill="white"/>
</mask>
<g mask="url(#mask1_55_493)">
<path d="M23 27C23 23.134 26.134 20 30 20C33.866 20 37 23.134 37 27C37 30.866 33.866 34 30 34C26.134 34 23 30.866 23 27Z" stroke="#0F58D5" stroke-width="2" stroke-miterlimit="10" stroke-linecap="round" stroke-linejoin="round"/>
<path d="M25 23H13" stroke="#0F58D5" stroke-width="2" stroke-miterlimit="10" stroke-linecap="round" stroke-linejoin="round"/>
<path d="M13 28H23" stroke="#0F58D5" stroke-width="2" stroke-miterlimit="10" stroke-linecap="round" stroke-linejoin="round"/>
<path d="M30 19.9212V7.30705L23.7778 0.999999H2V39H30V34.112" stroke="#0F58D5" stroke-width="2" stroke-miterlimit="10" stroke-linecap="round" stroke-linejoin="round"/>
<path d="M28 27.5L29.6667 29L33 26" stroke="#0F58D5" stroke-width="2" stroke-miterlimit="10" stroke-linecap="round" stroke-linejoin="round"/>
</g>
</svg>
