<svg width="20" height="20" viewBox="0 0 20 20" fill="none" xmlns="http://www.w3.org/2000/svg">
<path fill-rule="evenodd" clip-rule="evenodd" d="M6.0512 15.3934C10.0851 11.3595 13.3596 8.08483 17.3935 4.05107C17.4617 3.98282 17.5735 3.98314 17.6414 4.05107L17.9549 4.36439L17.9579 4.36757L18.6323 5.04198L18.6355 5.04516L18.9489 5.35863C19.0169 5.42656 19.0172 5.53815 18.9489 5.6064C14.915 9.64035 11.6406 12.915 7.60666 16.9489C7.53841 17.017 7.42714 17.017 7.35889 16.9489L7.04542 16.6355L7.04225 16.6323L6.36784 15.9579L6.36466 15.9547L6.05119 15.6412C5.98294 15.573 5.98295 15.4617 6.0512 15.3934Z" fill="white"/>
<path fill-rule="evenodd" clip-rule="evenodd" d="M7.36752 16.9481C3.26834 12.849 5.15108 14.7317 1.05189 10.6325C0.982541 10.5632 0.982863 10.4496 1.05189 10.3806L1.37044 10.0622L1.37367 10.059L2.05899 9.37366L2.06205 9.37043L2.38059 9.05189C2.44962 8.98286 2.56317 8.98254 2.63252 9.05189C6.7317 13.151 4.84897 11.2683 8.94799 15.3675C9.01734 15.4368 9.01734 15.5499 8.94799 15.6192L8.62944 15.9378L8.62638 15.941L7.94106 16.6263L7.93783 16.6296L7.61929 16.9481C7.54994 17.0173 7.43687 17.0173 7.36752 16.9481Z" fill="white"/>
</svg>
