<svg width="12" height="12" viewBox="0 0 12 12" fill="none" xmlns="http://www.w3.org/2000/svg">
<path fill-rule="evenodd" clip-rule="evenodd" d="M3.62837 9.23594C6.04873 6.81558 8.01339 4.8508 10.4337 2.43054C10.4747 2.38959 10.5417 2.38978 10.5825 2.43054L10.7706 2.61854L10.7724 2.62044L11.177 3.02509L11.1789 3.027L11.367 3.21508C11.4078 3.25584 11.408 3.32279 11.367 3.36374C8.94666 5.78411 6.982 7.74888 4.56165 10.1693C4.5207 10.2101 4.45394 10.2101 4.41299 10.1693L4.22491 9.98117L4.223 9.97927L3.81836 9.57462L3.81645 9.57271L3.62837 9.38463C3.58742 9.34368 3.58742 9.27689 3.62837 9.23594Z" fill="#0F58D5"/>
<path fill-rule="evenodd" clip-rule="evenodd" d="M4.41817 10.1688C1.95866 7.70927 3.0883 8.83891 0.628792 6.37941C0.587181 6.3378 0.587374 6.26967 0.628792 6.22826L0.819918 6.03723L0.821855 6.03529L1.23305 5.6241L1.23489 5.62216L1.42601 5.43104C1.46743 5.38962 1.53556 5.38943 1.57717 5.43104C4.03668 7.89053 2.90704 6.7609 5.36645 9.22039C5.40806 9.262 5.40806 9.32984 5.36645 9.37145L5.17532 9.56258L5.17348 9.56451L4.76229 9.9757L4.76035 9.97764L4.56923 10.1688C4.52762 10.2103 4.45978 10.2103 4.41817 10.1688Z" fill="#0F58D5"/>
</svg>
