<svg width="1490" height="403" viewBox="0 0 1490 403" fill="none" xmlns="http://www.w3.org/2000/svg">
<path d="M469.047 334.96H463.084V304.442H489.948V334.96H483.985V309.251H469.047V334.96Z" fill="white"/>
<path d="M519.19 350.347H513.227V304.442H519.062V309.315H519.254C520.451 307.52 522.032 306.13 523.998 305.147C525.965 304.164 528.059 303.673 530.282 303.673C532.59 303.673 534.684 304.1 536.565 304.955C538.488 305.767 540.112 306.9 541.437 308.353C542.805 309.806 543.852 311.516 544.579 313.482C545.306 315.405 545.669 317.478 545.669 319.701C545.669 321.924 545.306 324.018 544.579 325.984C543.852 327.908 542.805 329.596 541.437 331.049C540.112 332.502 538.488 333.656 536.565 334.511C534.684 335.366 532.568 335.794 530.217 335.794C528.123 335.794 526.093 335.323 524.127 334.383C522.161 333.443 520.579 332.075 519.382 330.28H519.19V350.347ZM539.642 319.701C539.642 318.205 539.407 316.795 538.937 315.47C538.509 314.102 537.847 312.926 536.949 311.943C536.052 310.918 534.962 310.105 533.68 309.507C532.397 308.909 530.923 308.609 529.256 308.609C527.717 308.609 526.285 308.909 524.96 309.507C523.678 310.063 522.567 310.853 521.626 311.879C520.686 312.862 519.959 314.038 519.446 315.405C518.933 316.73 518.677 318.162 518.677 319.701C518.677 321.24 518.933 322.693 519.446 324.061C519.959 325.386 520.686 326.561 521.626 327.587C522.567 328.57 523.678 329.361 524.96 329.959C526.285 330.515 527.717 330.793 529.256 330.793C530.923 330.793 532.397 330.494 533.68 329.895C534.962 329.297 536.052 328.506 536.949 327.523C537.847 326.497 538.509 325.322 538.937 323.997C539.407 322.629 539.642 321.197 539.642 319.701Z" fill="white"/>
<path d="M598.026 319.701C598.026 322.052 597.598 324.21 596.743 326.177C595.931 328.143 594.777 329.852 593.281 331.306C591.828 332.716 590.097 333.827 588.088 334.64C586.079 335.409 583.899 335.794 581.548 335.794C579.198 335.794 577.018 335.409 575.009 334.64C573.043 333.827 571.312 332.716 569.816 331.306C568.362 329.852 567.208 328.143 566.354 326.177C565.541 324.21 565.135 322.052 565.135 319.701C565.135 317.35 565.541 315.192 566.354 313.226C567.208 311.259 568.362 309.571 569.816 308.161C571.312 306.707 573.043 305.596 575.009 304.827C577.018 304.015 579.198 303.609 581.548 303.609C583.899 303.609 586.079 304.015 588.088 304.827C590.097 305.596 591.828 306.707 593.281 308.161C594.777 309.571 595.931 311.259 596.743 313.226C597.598 315.192 598.026 317.35 598.026 319.701ZM591.999 319.701C591.999 318.162 591.743 316.73 591.23 315.405C590.759 314.038 590.076 312.862 589.178 311.879C588.28 310.853 587.19 310.063 585.908 309.507C584.626 308.909 583.173 308.609 581.548 308.609C579.924 308.609 578.471 308.909 577.189 309.507C575.906 310.063 574.817 310.853 573.919 311.879C573.021 312.862 572.337 314.038 571.867 315.405C571.397 316.73 571.162 318.162 571.162 319.701C571.162 321.197 571.397 322.629 571.867 323.997C572.337 325.322 573.021 326.497 573.919 327.523C574.817 328.506 575.906 329.297 577.189 329.895C578.471 330.494 579.924 330.793 581.548 330.793C583.173 330.793 584.626 330.494 585.908 329.895C587.19 329.297 588.28 328.506 589.178 327.523C590.076 326.497 590.759 325.322 591.23 323.997C591.743 322.629 591.999 321.197 591.999 319.701Z" fill="white"/>
<path d="M638.941 303.737C641.292 303.737 643.45 304.164 645.417 305.019C647.383 305.831 649.071 306.964 650.482 308.417C651.892 309.828 652.982 311.516 653.751 313.482C654.564 315.405 654.97 317.478 654.97 319.701C654.97 322.009 654.564 324.146 653.751 326.112C652.982 328.036 651.892 329.703 650.482 331.113C649.071 332.524 647.383 333.635 645.417 334.447C643.45 335.259 641.292 335.687 638.941 335.73V350.604H633.427V335.73C631.162 335.687 629.046 335.259 627.08 334.447C625.157 333.635 623.49 332.524 622.079 331.113C620.669 329.66 619.557 327.972 618.745 326.048C617.933 324.082 617.527 321.966 617.527 319.701C617.527 317.436 617.912 315.341 618.681 313.418C619.493 311.495 620.605 309.828 622.015 308.417C623.426 306.964 625.093 305.831 627.016 305.019C628.982 304.207 631.119 303.78 633.427 303.737V286.49H638.941V303.737ZM649.007 319.701C649.007 318.162 648.772 316.73 648.302 315.405C647.874 314.08 647.233 312.926 646.378 311.943C645.523 310.918 644.455 310.105 643.173 309.507C641.933 308.909 640.523 308.588 638.941 308.545V330.857C640.523 330.814 641.933 330.515 643.173 329.959C644.455 329.361 645.523 328.57 646.378 327.587C647.233 326.561 647.874 325.386 648.302 324.061C648.772 322.693 649.007 321.24 649.007 319.701ZM623.426 319.701C623.426 321.24 623.639 322.693 624.067 324.061C624.537 325.386 625.199 326.561 626.054 327.587C626.952 328.57 628.02 329.361 629.26 329.959C630.5 330.515 631.889 330.814 633.427 330.857V308.545C631.846 308.588 630.435 308.909 629.196 309.507C627.956 310.063 626.909 310.853 626.054 311.879C625.199 312.862 624.537 314.038 624.067 315.405C623.639 316.73 623.426 318.162 623.426 319.701Z" fill="white"/>
<path d="M699.175 317.072C699.09 314.508 698.278 312.392 696.739 310.725C695.2 309.058 692.999 308.225 690.135 308.225C688.81 308.225 687.571 308.481 686.417 308.994C685.305 309.464 684.322 310.105 683.468 310.918C682.613 311.73 681.907 312.67 681.352 313.739C680.839 314.807 680.54 315.918 680.454 317.072H699.175ZM704.946 319.124C704.946 319.466 704.946 319.829 704.946 320.214C704.946 320.556 704.924 320.919 704.882 321.304H680.454C680.497 322.672 680.775 323.954 681.288 325.151C681.843 326.305 682.57 327.309 683.468 328.164C684.365 329.019 685.412 329.703 686.609 330.216C687.849 330.729 689.152 330.985 690.52 330.985C692.657 330.985 694.474 330.515 695.97 329.575C697.508 328.592 698.684 327.48 699.496 326.241L703.792 329.318C702.082 331.583 700.116 333.229 697.893 334.255C695.671 335.281 693.213 335.794 690.52 335.794C688.255 335.794 686.139 335.409 684.173 334.64C682.207 333.87 680.497 332.78 679.044 331.37C677.633 329.959 676.522 328.271 675.71 326.305C674.898 324.339 674.492 322.159 674.492 319.765C674.492 317.414 674.876 315.256 675.646 313.29C676.458 311.281 677.569 309.571 678.98 308.161C680.39 306.707 682.036 305.596 683.916 304.827C685.84 304.015 687.913 303.609 690.135 303.609C692.486 303.609 694.581 304.015 696.419 304.827C698.256 305.596 699.795 306.686 701.035 308.097C702.317 309.464 703.279 311.089 703.92 312.969C704.604 314.85 704.946 316.901 704.946 319.124Z" fill="white"/>
<path d="M748.103 312.2C747.419 311.131 746.415 310.276 745.09 309.635C743.808 308.951 742.418 308.609 740.922 308.609C739.341 308.609 737.909 308.909 736.627 309.507C735.345 310.063 734.255 310.832 733.357 311.815C732.459 312.798 731.754 313.974 731.241 315.341C730.771 316.709 730.536 318.162 730.536 319.701C730.536 321.24 730.771 322.693 731.241 324.061C731.754 325.429 732.459 326.604 733.357 327.587C734.255 328.57 735.345 329.361 736.627 329.959C737.909 330.515 739.341 330.793 740.922 330.793C742.589 330.793 744.043 330.472 745.282 329.831C746.564 329.19 747.612 328.335 748.424 327.267L752.399 330.857C751.074 332.353 749.45 333.55 747.526 334.447C745.645 335.345 743.423 335.794 740.858 335.794C738.422 335.794 736.178 335.409 734.126 334.64C732.117 333.827 730.386 332.716 728.933 331.306C727.523 329.852 726.411 328.143 725.599 326.177C724.787 324.21 724.381 322.052 724.381 319.701C724.381 317.35 724.787 315.192 725.599 313.226C726.411 311.259 727.523 309.571 728.933 308.161C730.386 306.707 732.117 305.596 734.126 304.827C736.178 304.015 738.422 303.609 740.858 303.609C742.953 303.609 745.047 304.036 747.141 304.891C749.236 305.746 750.924 306.985 752.206 308.609L748.103 312.2Z" fill="white"/>
<path d="M793.044 312.2C792.36 311.131 791.356 310.276 790.031 309.635C788.749 308.951 787.36 308.609 785.864 308.609C784.282 308.609 782.85 308.909 781.568 309.507C780.286 310.063 779.196 310.832 778.298 311.815C777.401 312.798 776.695 313.974 776.182 315.341C775.712 316.709 775.477 318.162 775.477 319.701C775.477 321.24 775.712 322.693 776.182 324.061C776.695 325.429 777.401 326.604 778.298 327.587C779.196 328.57 780.286 329.361 781.568 329.959C782.85 330.515 784.282 330.793 785.864 330.793C787.531 330.793 788.984 330.472 790.223 329.831C791.506 329.19 792.553 328.335 793.365 327.267L797.34 330.857C796.015 332.353 794.391 333.55 792.467 334.447C790.587 335.345 788.364 335.794 785.799 335.794C783.363 335.794 781.119 335.409 779.068 334.64C777.059 333.827 775.328 332.716 773.874 331.306C772.464 329.852 771.353 328.143 770.54 326.177C769.728 324.21 769.322 322.052 769.322 319.701C769.322 317.35 769.728 315.192 770.54 313.226C771.353 311.259 772.464 309.571 773.874 308.161C775.328 306.707 777.059 305.596 779.068 304.827C781.119 304.015 783.363 303.609 785.799 303.609C787.894 303.609 789.988 304.036 792.083 304.891C794.177 305.746 795.865 306.985 797.148 308.609L793.044 312.2Z" fill="white"/>
<path d="M839.401 312.072L822.091 334.96H816.061V304.442H822.091V326.689L839.401 304.442H845.421V334.96H839.401V312.072Z" fill="white"/>
<path d="M891.849 312.072L874.54 334.96H868.52V304.442H874.54V326.689L891.849 304.442H897.88V334.96H891.849V312.072Z" fill="white"/>
<path d="M973.16 312.072L955.85 334.96H949.82V304.442H955.85V326.689L973.16 304.442H979.19V334.96H973.16V312.072Z" fill="white"/>
<path d="M1026.83 304.442H1053.63V309.251H1042.93V334.96H1036.96V309.251H1026.83V304.442Z" fill="white"/>
<path d="M1095.33 317.072C1095.24 314.508 1094.43 312.392 1092.89 310.725C1091.35 309.058 1089.15 308.225 1086.29 308.225C1084.96 308.225 1083.72 308.481 1082.57 308.994C1081.46 309.464 1080.47 310.105 1079.62 310.918C1078.76 311.73 1078.06 312.67 1077.5 313.739C1076.99 314.807 1076.69 315.918 1076.61 317.072H1095.33ZM1101.1 319.124C1101.1 319.466 1101.1 319.829 1101.1 320.214C1101.1 320.556 1101.08 320.919 1101.03 321.304H1076.61C1076.65 322.672 1076.93 323.954 1077.44 325.151C1078 326.305 1078.72 327.309 1079.62 328.164C1080.52 329.019 1081.56 329.703 1082.76 330.216C1084 330.729 1085.3 330.985 1086.67 330.985C1088.81 330.985 1090.63 330.515 1092.12 329.575C1093.66 328.592 1094.84 327.48 1095.65 326.241L1099.94 329.318C1098.23 331.583 1096.27 333.229 1094.05 334.255C1091.82 335.281 1089.36 335.794 1086.67 335.794C1084.41 335.794 1082.29 335.409 1080.32 334.64C1078.36 333.87 1076.65 332.78 1075.2 331.37C1073.79 329.959 1072.67 328.271 1071.86 326.305C1071.05 324.339 1070.64 322.159 1070.64 319.765C1070.64 317.414 1071.03 315.256 1071.8 313.29C1072.61 311.281 1073.72 309.571 1075.13 308.161C1076.54 306.707 1078.19 305.596 1080.07 304.827C1081.99 304.015 1084.06 303.609 1086.29 303.609C1088.64 303.609 1090.73 304.015 1092.57 304.827C1094.41 305.596 1095.95 306.686 1097.19 308.097C1098.47 309.464 1099.43 311.089 1100.07 312.969C1100.76 314.85 1101.1 316.901 1101.1 319.124Z" fill="white"/>
<path d="M1129.96 319.124L1118.74 304.442H1126.05L1133.68 315.149L1141.31 304.442H1148.29L1137.2 318.996L1149.32 334.96H1141.95L1133.55 323.163L1124.96 334.96H1117.9L1129.96 319.124Z" fill="white"/>
<path d="M1173.92 334.96H1167.96V304.442H1173.92V316.495H1189.37V304.442H1195.33V334.96H1189.37V321.304H1173.92V334.96Z" fill="white"/>
<path d="M1249.51 319.701C1249.51 322.052 1249.08 324.21 1248.22 326.177C1247.41 328.143 1246.26 329.852 1244.76 331.306C1243.31 332.716 1241.58 333.827 1239.57 334.64C1237.56 335.409 1235.38 335.794 1233.03 335.794C1230.68 335.794 1228.5 335.409 1226.49 334.64C1224.52 333.827 1222.79 332.716 1221.3 331.306C1219.84 329.852 1218.69 328.143 1217.83 326.177C1217.02 324.21 1216.61 322.052 1216.61 319.701C1216.61 317.35 1217.02 315.192 1217.83 313.226C1218.69 311.259 1219.84 309.571 1221.3 308.161C1222.79 306.707 1224.52 305.596 1226.49 304.827C1228.5 304.015 1230.68 303.609 1233.03 303.609C1235.38 303.609 1237.56 304.015 1239.57 304.827C1241.58 305.596 1243.31 306.707 1244.76 308.161C1246.26 309.571 1247.41 311.259 1248.22 313.226C1249.08 315.192 1249.51 317.35 1249.51 319.701ZM1243.48 319.701C1243.48 318.162 1243.22 316.73 1242.71 315.405C1242.24 314.038 1241.56 312.862 1240.66 311.879C1239.76 310.853 1238.67 310.063 1237.39 309.507C1236.11 308.909 1234.65 308.609 1233.03 308.609C1231.4 308.609 1229.95 308.909 1228.67 309.507C1227.39 310.063 1226.3 310.853 1225.4 311.879C1224.5 312.862 1223.82 314.038 1223.35 315.405C1222.88 316.73 1222.64 318.162 1222.64 319.701C1222.64 321.197 1222.88 322.629 1223.35 323.997C1223.82 325.322 1224.5 326.497 1225.4 327.523C1226.3 328.506 1227.39 329.297 1228.67 329.895C1229.95 330.494 1231.4 330.793 1233.03 330.793C1234.65 330.793 1236.11 330.494 1237.39 329.895C1238.67 329.297 1239.76 328.506 1240.66 327.523C1241.56 326.497 1242.24 325.322 1242.71 323.997C1243.22 322.629 1243.48 321.197 1243.48 319.701Z" fill="white"/>
<path d="M1291.77 334.96L1282.66 311.559L1273.11 334.96H1266.76L1279.71 304.442H1285.81L1297.99 334.96H1291.77Z" fill="white"/>
<path d="M1348.16 319.701C1348.16 322.052 1347.73 324.21 1346.87 326.177C1346.06 328.143 1344.91 329.852 1343.41 331.306C1341.96 332.716 1340.23 333.827 1338.22 334.64C1336.21 335.409 1334.03 335.794 1331.68 335.794C1329.33 335.794 1327.15 335.409 1325.14 334.64C1323.17 333.827 1321.44 332.716 1319.95 331.306C1318.49 329.852 1317.34 328.143 1316.48 326.177C1315.67 324.21 1315.26 322.052 1315.26 319.701C1315.26 317.35 1315.67 315.192 1316.48 313.226C1317.34 311.259 1318.49 309.571 1319.95 308.161C1321.44 306.707 1323.17 305.596 1325.14 304.827C1327.15 304.015 1329.33 303.609 1331.68 303.609C1334.03 303.609 1336.21 304.015 1338.22 304.827C1340.23 305.596 1341.96 306.707 1343.41 308.161C1344.91 309.571 1346.06 311.259 1346.87 313.226C1347.73 315.192 1348.16 317.35 1348.16 319.701ZM1342.13 319.701C1342.13 318.162 1341.87 316.73 1341.36 315.405C1340.89 314.038 1340.21 312.862 1339.31 311.879C1338.41 310.853 1337.32 310.063 1336.04 309.507C1334.76 308.909 1333.3 308.609 1331.68 308.609C1330.05 308.609 1328.6 308.909 1327.32 309.507C1326.04 310.063 1324.95 310.853 1324.05 311.879C1323.15 312.862 1322.47 314.038 1322 315.405C1321.53 316.73 1321.29 318.162 1321.29 319.701C1321.29 321.197 1321.53 322.629 1322 323.997C1322.47 325.322 1323.15 326.497 1324.05 327.523C1324.95 328.506 1326.04 329.297 1327.32 329.895C1328.6 330.494 1330.05 330.793 1331.68 330.793C1333.3 330.793 1334.76 330.494 1336.04 329.895C1337.32 329.297 1338.41 328.506 1339.31 327.523C1340.21 326.497 1340.89 325.322 1341.36 323.997C1341.87 322.629 1342.13 321.197 1342.13 319.701Z" fill="white"/>
<path d="M1375.42 334.96H1369.45V304.442H1389.07V309.251H1375.42V334.96Z" fill="white"/>
<path d="M1431.28 312.072L1413.97 334.96H1407.95V304.442H1413.97V326.689L1431.28 304.442H1437.31V334.96H1431.28V312.072Z" fill="white"/>
<path d="M1483.74 312.072L1466.43 334.96H1460.4V304.442H1466.43V326.689L1483.74 304.442H1489.77V334.96H1483.74V312.072Z" fill="white"/>
<path fill-rule="evenodd" clip-rule="evenodd" d="M305.64 0C337.731 0 363.747 28.549 363.747 63.766V337.023C361.99 346.973 351.367 352.851 341.496 349.469C336.547 347.773 333.077 344.225 331.087 338.828L330.899 338.3L330.714 337.083C330.554 335.982 330.471 335.22 330.466 334.799C330.419 327.612 330.394 320.44 330.39 313.282C330.434 293.862 330.416 292.96 330.337 273.569C330.319 269.567 329.438 266.282 327.694 263.714C318.681 250.432 297.855 256.479 297.677 272.754C297.587 280.995 297.607 282.22 297.737 313.433C297.816 321.524 297.806 329.625 297.705 337.738C297.668 340.517 298.194 343.401 299.284 346.389L299.509 346.989C300.705 351.336 302.51 355.347 304.923 359.022C311.116 368.461 319.984 375.881 330.569 379.723C336.252 381.786 342.056 382.943 347.851 383.051C337.26 395.335 322.266 403 305.64 403H303.868C297.293 398.825 291.248 393.777 285.924 388.022C276.169 377.475 269.516 365.16 265.964 351.079C264.847 346.925 264.292 343.289 264.299 340.169C264.353 320.184 264.367 300.2 264.342 280.219C264.407 258.176 264.404 236.137 264.332 214.101C264.321 210.11 264.062 207.297 263.554 205.662C262.052 200.81 258.973 197.344 254.319 195.266C245.501 191.327 235.276 196.303 232.499 204.9C231.944 206.615 231.664 209.938 231.657 214.869C231.617 236.818 231.617 258.765 231.657 280.711C231.704 299.586 231.704 318.46 231.657 337.333C231.642 344.62 232.435 351.783 234.039 358.822C236.82 370.252 240.828 380.437 246.062 389.374C248.865 394.162 251.967 398.703 255.362 403H198.042C198.211 357.105 198.515 271.904 198.486 222.137C198.48 219.024 198.682 214.57 198.344 210.709C198.424 209.948 198.464 209.148 198.464 208.312C198.464 198.362 198.46 165.081 198.453 144.891C198.453 139.042 198.638 135.337 196.011 131.281C192.686 126.143 188.008 123.615 181.976 123.698C174.966 123.789 168.715 128.248 166.523 134.625C165.989 136.183 165.722 139.267 165.722 143.874C165.722 160.28 165.737 194.865 165.766 211.21C165.439 214.269 165.612 217.63 165.612 220.199C165.607 273.211 165.287 357.476 165.092 403H110.286C113.451 398.966 116.355 394.718 118.998 390.257C124.278 381.348 128.321 371.198 131.127 359.805C132.744 352.789 133.545 345.648 133.53 338.384C133.483 319.573 133.483 300.759 133.53 281.944C133.57 260.069 133.57 238.194 133.53 216.316C133.523 211.401 133.24 208.088 132.68 206.379C129.879 197.809 119.565 192.848 110.669 196.775C105.975 198.847 102.87 202.301 101.354 207.138C100.842 208.768 100.581 211.572 100.57 215.55C100.497 237.515 100.493 259.483 100.558 281.454C100.533 301.372 100.547 321.291 100.602 341.212C100.609 344.321 100.05 347.946 98.924 352.086C95.341 366.122 88.629 378.397 78.789 388.91C73.775 394.266 68.128 399.007 62.004 403H58.107C41.889 403 27.225 395.707 16.684 383.948C22.409 383.801 28.141 382.652 33.755 380.638C44.433 376.808 53.377 369.413 59.624 360.004C61.906 356.57 63.649 352.841 64.852 348.817L65.086 348.008L65.313 347.412C66.413 344.433 66.943 341.558 66.906 338.788C66.804 330.702 66.794 322.626 66.874 314.561C67.004 283.449 67.025 282.228 66.934 274.012C66.753 257.79 45.746 251.764 36.654 265.003C34.896 267.563 34.007 270.837 33.989 274.826C33.909 294.155 33.892 295.054 33.935 314.411C33.932 321.545 33.906 328.695 33.858 335.858C33.853 336.278 33.77 337.038 33.609 338.136L33.423 339.348C31.45 345.024 27.887 348.736 22.734 350.481C11.838 354.17 0.0319977 346.807 0.0319977 335.168V309.591C0.0299977 309.185 0.018 308.787 0 308.396V63.766C0 28.549 26.015 0 58.107 0H305.64ZM49.998 205.287C44.515 205.287 39.256 207.44 35.379 211.271C31.502 215.102 29.324 220.298 29.324 225.716C29.324 231.135 31.502 236.332 35.379 240.163C39.256 243.994 44.515 246.145 49.998 246.145C55.481 246.145 60.74 243.994 64.617 240.163C68.494 236.332 70.672 231.135 70.672 225.716C70.672 220.298 68.494 215.102 64.617 211.271C60.74 207.44 55.481 205.287 49.998 205.287ZM314.467 203.805C309.031 203.805 303.817 205.964 299.973 209.808C296.129 213.652 293.97 218.865 293.97 224.301C293.97 229.736 296.129 234.95 299.973 238.793C303.817 242.637 309.031 244.796 314.467 244.796C319.903 244.796 325.116 242.637 328.959 238.793C332.803 234.95 334.962 229.736 334.962 224.301C334.962 218.865 332.803 213.652 328.959 209.808C325.116 205.965 319.902 203.805 314.467 203.805ZM120.396 143.322C117.712 142.843 114.961 142.891 112.301 143.465C109.641 144.038 107.123 145.125 104.891 146.663C102.66 148.201 100.759 150.161 99.296 152.43C97.833 154.698 96.837 157.233 96.365 159.887C95.893 162.541 95.955 165.263 96.546 167.898C97.137 170.534 98.246 173.03 99.81 175.246C101.374 177.461 103.362 179.352 105.66 180.81C107.959 182.268 110.525 183.265 113.208 183.744C115.892 184.223 118.643 184.174 121.303 183.601C123.963 183.028 126.48 181.941 128.712 180.403C130.943 178.864 132.845 176.905 134.308 174.636C135.771 172.367 136.766 169.833 137.238 167.179C137.71 164.525 137.649 161.803 137.058 159.167C136.467 156.532 135.357 154.034 133.793 151.819C132.229 149.604 130.241 147.713 127.942 146.255C125.644 144.797 123.079 143.8 120.396 143.322ZM252.702 141.783C250.065 141.208 247.338 141.158 244.677 141.639C242.017 142.119 239.474 143.12 237.195 144.583C234.916 146.045 232.945 147.942 231.395 150.164C229.844 152.387 228.744 154.892 228.158 157.536C227.572 160.179 227.512 162.911 227.979 165.574C228.447 168.236 229.435 170.778 230.885 173.054C232.335 175.33 234.221 177.297 236.433 178.84C238.645 180.383 241.141 181.473 243.778 182.048C246.415 182.624 249.142 182.672 251.802 182.192C254.463 181.711 257.006 180.712 259.285 179.249C261.564 177.786 263.534 175.889 265.085 173.666C266.635 171.444 267.735 168.939 268.321 166.295C268.907 163.651 268.968 160.92 268.5 158.258C268.032 155.595 267.045 153.052 265.594 150.776C264.144 148.5 262.259 146.535 260.046 144.992C257.834 143.449 255.339 142.358 252.702 141.783ZM180.525 70.656C174.963 70.656 169.629 72.84 165.695 76.727C161.762 80.613 159.552 85.885 159.552 91.381C159.552 96.878 161.762 102.149 165.695 106.036C169.629 109.923 174.963 112.107 180.525 112.107C186.088 112.107 191.423 109.923 195.356 106.036C199.29 102.149 201.5 96.878 201.5 91.381C201.5 85.885 199.29 80.613 195.356 76.727C191.423 72.84 186.088 70.656 180.525 70.656Z" fill="white"/>
<path fill-rule="evenodd" clip-rule="evenodd" d="M1089.89 64.1139C1094.38 64.0979 1096.03 65.1839 1096.05 69.7069C1096.05 73.7649 1095.94 78.8869 1095.74 85.0709C1095.73 85.1989 1095.75 85.3269 1095.8 85.4449C1095.85 85.5629 1095.92 85.6699 1096.01 85.7589C1096.1 85.8469 1096.21 85.9149 1096.33 85.9589C1096.45 86.0019 1096.57 86.0179 1096.7 86.0089C1121.3 84.1669 1142.97 89.2829 1160.71 107.377C1176.43 123.41 1183.17 143.161 1180.93 166.629C1177.65 200.746 1151.23 227.971 1116.33 231.064C1110.71 231.557 1104.2 231.716 1096.81 231.54C1096.7 231.536 1096.59 231.554 1096.48 231.595C1096.37 231.636 1096.27 231.7 1096.19 231.78C1096.11 231.859 1096.04 231.955 1096 232.061C1095.95 232.166 1095.93 232.282 1095.93 232.397V248.861C1095.93 249.343 1095.84 249.821 1095.66 250.266C1095.47 250.711 1095.21 251.116 1094.87 251.456C1094.54 251.797 1094.13 252.067 1093.69 252.251C1093.26 252.435 1092.78 252.53 1092.31 252.53H1067.46C1066.5 252.53 1065.59 252.147 1064.92 251.465C1064.25 250.783 1063.87 249.858 1063.87 248.894V232.972C1063.87 232.793 1063.83 232.615 1063.76 232.449C1063.69 232.284 1063.59 232.132 1063.47 232.006C1063.34 231.879 1063.19 231.778 1063.02 231.709C1062.85 231.641 1062.68 231.606 1062.5 231.606C1054.57 231.628 1049.94 231.628 1048.63 231.606C1012.03 230.981 981.22 201.602 979.36 165.134C977.53 129.241 996.74 99.4809 1031.38 88.6569C1041.12 85.6139 1052.93 85.5649 1062.79 85.8109C1062.91 85.8139 1063.04 85.7929 1063.15 85.7479C1063.27 85.7029 1063.37 85.6329 1063.46 85.5479C1063.55 85.4619 1063.62 85.3599 1063.66 85.2469C1063.71 85.1339 1063.74 85.0139 1063.74 84.8909L1063.87 67.931C1063.87 67.426 1063.98 66.9279 1064.17 66.4639C1064.37 65.9999 1064.66 65.5799 1065.02 65.2299C1065.38 64.8789 1065.8 64.6049 1066.27 64.4219C1066.74 64.2389 1067.24 64.1519 1067.74 64.1649C1067.81 64.1649 1075.19 64.1469 1089.89 64.1139ZM1051.39 117.28C1040.57 117.28 1030.2 121.611 1022.55 129.32C1014.9 137.029 1010.61 147.486 1010.61 158.388V159.31C1010.61 170.212 1014.9 180.668 1022.55 188.377C1030.2 196.086 1040.57 200.416 1051.39 200.416H1063.17C1063.44 200.416 1063.7 200.308 1063.89 200.113C1064.09 199.919 1064.19 199.655 1064.19 199.38V118.316C1064.19 118.042 1064.09 117.777 1063.89 117.583C1063.7 117.389 1063.44 117.28 1063.17 117.28H1051.39ZM1096.62 117.082C1096.37 117.082 1096.13 117.181 1095.96 117.357C1095.78 117.533 1095.69 117.771 1095.69 118.02V199.182C1095.69 199.431 1095.78 199.67 1095.96 199.846C1096.13 200.021 1096.37 200.12 1096.62 200.12H1109.49C1120.13 200.12 1130.33 195.853 1137.85 188.258C1145.37 180.663 1149.6 170.363 1149.6 159.622V157.582C1149.6 146.841 1145.37 136.539 1137.85 128.944C1130.33 121.35 1120.13 117.083 1109.49 117.082H1096.62Z" fill="white"/>
<path fill-rule="evenodd" clip-rule="evenodd" d="M872.121 66.6351C896.791 67.1561 920.25 77.3941 937.34 95.0951C954.431 112.797 963.741 136.514 963.231 161.028C962.981 173.165 960.321 185.134 955.421 196.249C950.511 207.363 943.441 217.407 934.631 225.807C925.811 234.207 915.411 240.801 904.031 245.207C892.641 249.613 880.491 251.747 868.271 251.489C843.601 250.968 820.141 240.731 803.051 223.029C785.963 205.327 776.648 181.61 777.157 157.097C777.41 144.96 780.066 132.993 784.975 121.878C789.883 110.763 796.949 100.718 805.771 92.3181C814.581 83.9181 824.981 77.3261 836.361 72.9201C847.751 68.5131 859.901 66.3771 872.121 66.6351ZM875.71 98.5691C859.69 97.1291 843.77 102.132 831.44 112.475C819.11 122.82 811.381 137.659 809.961 153.729C808.541 169.798 813.541 185.782 823.861 198.164C834.171 210.545 848.971 218.31 864.981 219.751C880.991 221.191 896.921 216.189 909.241 205.845C921.571 195.501 929.301 180.663 930.721 164.594C932.141 148.525 927.15 132.54 916.83 120.159C906.51 107.777 891.72 100.01 875.71 98.5691Z" fill="white"/>
<path fill-rule="evenodd" clip-rule="evenodd" d="M641.62 69.0989C667.716 68.9999 687.618 69.0269 701.324 69.1799C719.817 69.3999 734.591 75.3439 745.643 87.0129C766.023 108.562 767.705 144.374 748.401 167.387C734.76 183.639 717.136 189.527 695.76 188.967C690.8 188.836 681.292 188.781 667.239 188.803C667.057 188.803 666.882 188.877 666.753 189.007C666.625 189.136 666.553 189.311 666.553 189.494C666.39 205.451 666.352 223.525 666.439 243.714C666.471 248.977 662.31 248.467 657.561 248.483C646.052 248.527 639.846 248.565 638.943 248.597C634.554 248.729 633.787 246.114 633.787 242.067C633.787 156.068 633.83 99.8979 633.917 73.5569C633.933 68.6879 637.426 69.1149 641.62 69.0989ZM667.173 100.502C666.93 100.502 666.698 100.599 666.527 100.772C666.356 100.944 666.259 101.18 666.259 101.424V156.759C666.259 157.003 666.356 157.238 666.527 157.411C666.698 157.584 666.93 157.681 667.173 157.681H701.862C709.401 157.681 716.632 154.745 721.963 149.519C727.294 144.294 730.287 137.206 730.287 129.816V128.367C730.287 120.977 727.294 113.889 721.963 108.664C716.632 103.438 709.401 100.502 701.862 100.502H667.173Z" fill="white"/>
<path d="M534.756 69.0839C556.839 69.1059 579.51 69.169 602.768 69.279C603.652 69.283 604.5 69.6419 605.124 70.2739C605.747 70.9059 606.096 71.7609 606.097 72.6519C606.107 147.465 606.081 204.766 606.015 244.553C606.015 247.496 603.16 248.582 600.289 248.549C596.144 248.494 588.409 248.468 577.085 248.468C574.387 248.468 573.043 247.013 573.054 244.107C573.108 188.266 573.195 140.908 573.315 102.032C573.314 101.773 573.239 101.521 573.1 101.307C572.96 101.094 572.762 100.928 572.531 100.831C572.259 100.711 571.829 100.649 571.242 100.649C554.012 100.704 541.84 100.726 534.725 100.715C527.611 100.715 515.442 100.677 498.222 100.6C497.624 100.589 497.189 100.645 496.917 100.765C496.686 100.862 496.488 101.028 496.349 101.242C496.209 101.455 496.134 101.708 496.134 101.966C496.188 140.842 496.192 188.2 496.149 244.041C496.16 246.947 494.817 248.395 492.12 248.384C480.795 248.373 473.061 248.391 468.916 248.435C466.044 248.468 463.19 247.365 463.189 244.421C463.189 204.635 463.259 147.334 463.4 72.52C463.405 71.629 463.759 70.775 464.386 70.146C465.013 69.518 465.862 69.1649 466.747 69.1649C489.993 69.0879 512.663 69.0619 534.756 69.0839Z" fill="white"/>
<path d="M1200.33 74.674C1200.36 67.931 1204.38 68.901 1209.61 68.901C1213.71 68.912 1220.1 68.9669 1228.79 69.0659C1231.64 69.0989 1233.07 70.3819 1233.08 72.9149C1233.31 131.882 1233.14 172.491 1232.57 194.742C1232.57 194.828 1232.59 194.913 1232.63 194.991C1232.67 195.068 1232.72 195.136 1232.79 195.188C1232.86 195.241 1232.94 195.277 1233.02 195.294C1233.11 195.31 1233.19 195.308 1233.28 195.285C1233.88 195.109 1234.41 194.616 1234.84 193.805C1247.41 170.38 1269.93 129.782 1302.41 72.0109C1302.88 71.1759 1303.56 70.482 1304.39 69.999C1305.21 69.517 1306.14 69.2639 1307.09 69.2639C1316.01 69.2529 1325.42 69.209 1335.31 69.132C1338.19 69.099 1339.63 70.5299 1339.62 73.4249C1339.5 111.906 1339.5 168.105 1339.62 242.019C1339.62 249.388 1335.54 248.466 1329.73 248.499C1319.21 248.542 1312.78 248.472 1310.46 248.286C1307.98 248.077 1306.73 246.684 1306.72 244.107C1306.6 206.076 1306.7 167.211 1307.03 127.513C1307.03 127.413 1307.01 127.314 1306.96 127.227C1306.91 127.14 1306.84 127.066 1306.76 127.016C1306.67 126.967 1306.57 126.943 1306.48 126.946C1306.38 126.949 1306.28 126.98 1306.2 127.034C1306.07 127.111 1305.97 127.216 1305.89 127.348C1286.9 161.344 1272.53 186.578 1262.79 203.049C1254.98 216.264 1246.91 230.372 1238.56 245.374C1238.06 246.272 1237.33 247.02 1236.45 247.543C1235.57 248.066 1234.56 248.346 1233.54 248.352C1229.49 248.384 1219.9 248.395 1204.77 248.384C1200.85 248.384 1200.25 245.275 1200.25 241.788C1200.12 186.758 1200.15 131.053 1200.33 74.674Z" fill="white"/>
<path d="M1420.18 69.0991C1440.96 69.0991 1461.96 69.1251 1483.16 69.1801C1486.22 69.1801 1487.73 70.8531 1487.7 74.1981C1487.59 83.5191 1487.54 90.9501 1487.54 96.4881C1487.52 99.1851 1486.15 100.578 1483.41 100.666C1478.25 100.82 1462.95 100.82 1437.51 100.666C1437.25 100.666 1437 100.766 1436.82 100.945C1436.64 101.124 1436.54 101.366 1436.54 101.619C1436.49 148.205 1436.51 195.838 1436.61 244.518C1436.61 246.886 1435.2 248.121 1432.4 248.22C1429.12 248.34 1425.06 248.4 1420.21 248.4C1415.35 248.4 1411.28 248.345 1408.02 248.235C1405.2 248.125 1403.79 246.886 1403.79 244.518C1403.88 195.838 1403.89 148.205 1403.81 101.619C1403.81 101.366 1403.71 101.124 1403.53 100.945C1403.35 100.766 1403.1 100.666 1402.85 100.666C1377.4 100.831 1362.1 100.835 1356.95 100.682C1354.21 100.605 1352.83 99.2181 1352.82 96.5211C1352.82 90.9821 1352.76 83.5521 1352.64 74.2311C1352.61 70.8861 1354.12 69.2091 1357.17 69.1981C1378.38 69.1431 1399.38 69.1101 1420.18 69.0991Z" fill="white"/>
</svg>
