<svg width="40" height="40" viewBox="0 0 40 40" fill="none" xmlns="http://www.w3.org/2000/svg">
<path d="M38.7661 33H1.2339C0.552459 33 0 33.4477 0 34C0 34.5523 0.552459 35 1.2339 35H38.7661C39.4477 35 40 34.5523 40 34C40 33.4477 39.4475 33 38.7661 33Z" fill="#0F58D5"/>
<path d="M7.09403 21.0282C7.40058 21.398 7.89566 21.5571 8.36173 21.4354L16.5444 19.302L15.8448 24.612C15.7901 25.0265 15.9514 25.4405 16.2731 25.7102C16.4991 25.8999 16.7824 26 17.0705 26C17.1923 26 17.3147 25.9821 17.4342 25.9456L21.7578 24.6221C22.0284 24.5392 22.2621 24.3667 22.42 24.1333L27.8464 16.1088L32.3885 14.239C34.9124 13.1998 36.8276 12.1196 38.0805 11.0282C40.2892 9.10434 40.1961 7.36445 39.7289 6.2439C39.3023 5.22015 38.2619 4 35.7282 4C33.9837 4 31.6696 4.58853 28.8504 5.74922L10.7513 13.2L5.5427 9.53301C5.19496 9.28812 4.74503 9.23866 4.35164 9.40197L0.759661 10.8934C0.398733 11.0432 0.130592 11.354 0.0363217 11.7312C-0.0577833 12.1086 0.0333552 12.5078 0.28205 12.8079L7.09403 21.0282ZM4.67268 11.9315L9.87928 15.597C10.2262 15.8411 10.6746 15.8911 11.0669 15.7296L29.7963 8.019C32.2787 6.99705 34.3298 6.45684 35.728 6.45684C37.1419 6.45684 37.3621 6.98509 37.445 7.18395C37.5305 7.38903 37.7907 8.01343 36.4512 9.18034C35.4163 10.0816 33.6844 11.046 31.4423 11.9689L26.5556 13.9807C26.3308 14.0732 26.1385 14.2296 26.0027 14.4305L20.6122 22.402L18.5458 23.0344L19.2341 17.8098C19.2875 17.4043 19.1344 16.9989 18.8255 16.7286C18.5971 16.5286 18.3057 16.4218 18.0082 16.4218C17.9036 16.4218 17.7983 16.4351 17.6948 16.4621L8.49935 18.8595L3.24842 12.5228L4.67268 11.9315Z" fill="#0F58D5"/>
</svg>
