<svg width="1139" height="308" viewBox="0 0 1139 308" fill="none" xmlns="http://www.w3.org/2000/svg">
<path d="M358.477 256H353.92V232.676H374.451V256H369.894V236.351H358.477V256Z" fill="black"/>
<path d="M396.8 267.76H392.243V232.676H396.702V236.4H396.849C397.764 235.028 398.972 233.966 400.475 233.215C401.978 232.464 403.578 232.088 405.277 232.088C407.041 232.088 408.642 232.415 410.079 233.068C411.549 233.689 412.79 234.554 413.803 235.665C414.848 236.776 415.649 238.082 416.204 239.585C416.759 241.055 417.037 242.639 417.037 244.338C417.037 246.037 416.759 247.637 416.204 249.14C415.649 250.61 414.848 251.9 413.803 253.011C412.79 254.122 411.549 255.004 410.079 255.657C408.642 256.31 407.025 256.637 405.228 256.637C403.627 256.637 402.076 256.278 400.573 255.559C399.07 254.84 397.862 253.795 396.947 252.423H396.8V267.76ZM412.431 244.338C412.431 243.195 412.251 242.117 411.892 241.104C411.565 240.059 411.059 239.16 410.373 238.409C409.687 237.625 408.854 237.004 407.874 236.547C406.894 236.09 405.767 235.861 404.493 235.861C403.317 235.861 402.223 236.09 401.21 236.547C400.23 236.972 399.381 237.576 398.662 238.36C397.943 239.111 397.388 240.01 396.996 241.055C396.604 242.068 396.408 243.162 396.408 244.338C396.408 245.514 396.604 246.625 396.996 247.67C397.388 248.683 397.943 249.581 398.662 250.365C399.381 251.116 400.23 251.721 401.21 252.178C402.223 252.603 403.317 252.815 404.493 252.815C405.767 252.815 406.894 252.586 407.874 252.129C408.854 251.672 409.687 251.067 410.373 250.316C411.059 249.532 411.565 248.634 411.892 247.621C412.251 246.576 412.431 245.481 412.431 244.338Z" fill="black"/>
<path d="M457.052 244.338C457.052 246.135 456.725 247.784 456.072 249.287C455.451 250.79 454.569 252.096 453.426 253.207C452.315 254.285 450.992 255.134 449.457 255.755C447.921 256.343 446.255 256.637 444.459 256.637C442.662 256.637 440.996 256.343 439.461 255.755C437.958 255.134 436.635 254.285 435.492 253.207C434.381 252.096 433.499 250.79 432.846 249.287C432.225 247.784 431.915 246.135 431.915 244.338C431.915 242.541 432.225 240.892 432.846 239.389C433.499 237.886 434.381 236.596 435.492 235.518C436.635 234.407 437.958 233.558 439.461 232.97C440.996 232.349 442.662 232.039 444.459 232.039C446.255 232.039 447.921 232.349 449.457 232.97C450.992 233.558 452.315 234.407 453.426 235.518C454.569 236.596 455.451 237.886 456.072 239.389C456.725 240.892 457.052 242.541 457.052 244.338ZM452.446 244.338C452.446 243.162 452.25 242.068 451.858 241.055C451.498 240.01 450.976 239.111 450.29 238.36C449.604 237.576 448.771 236.972 447.791 236.547C446.811 236.09 445.7 235.861 444.459 235.861C443.217 235.861 442.107 236.09 441.127 236.547C440.147 236.972 439.314 237.576 438.628 238.36C437.942 239.111 437.419 240.01 437.06 241.055C436.7 242.068 436.521 243.162 436.521 244.338C436.521 245.481 436.7 246.576 437.06 247.621C437.419 248.634 437.942 249.532 438.628 250.316C439.314 251.067 440.147 251.672 441.127 252.129C442.107 252.586 443.217 252.815 444.459 252.815C445.7 252.815 446.811 252.586 447.791 252.129C448.771 251.672 449.604 251.067 450.29 250.316C450.976 249.532 451.498 248.634 451.858 247.621C452.25 246.576 452.446 245.481 452.446 244.338Z" fill="black"/>
<path d="M488.323 232.137C490.119 232.137 491.769 232.464 493.272 233.117C494.774 233.738 496.065 234.603 497.143 235.714C498.221 236.792 499.054 238.082 499.642 239.585C500.262 241.055 500.573 242.639 500.573 244.338C500.573 246.102 500.262 247.735 499.642 249.238C499.054 250.708 498.221 251.982 497.143 253.06C496.065 254.138 494.774 254.987 493.272 255.608C491.769 256.229 490.119 256.555 488.323 256.588V267.956H484.109V256.588C482.377 256.555 480.76 256.229 479.258 255.608C477.788 254.987 476.514 254.138 475.436 253.06C474.358 251.949 473.508 250.659 472.888 249.189C472.267 247.686 471.957 246.069 471.957 244.338C471.957 242.607 472.251 241.006 472.839 239.536C473.459 238.066 474.309 236.792 475.387 235.714C476.465 234.603 477.739 233.738 479.209 233.117C480.711 232.496 482.345 232.17 484.109 232.137V218.956H488.323V232.137ZM496.016 244.338C496.016 243.162 495.836 242.068 495.477 241.055C495.15 240.042 494.66 239.16 494.007 238.409C493.353 237.625 492.537 237.004 491.557 236.547C490.609 236.09 489.531 235.845 488.323 235.812V252.864C489.531 252.831 490.609 252.603 491.557 252.178C492.537 251.721 493.353 251.116 494.007 250.365C494.66 249.581 495.15 248.683 495.477 247.67C495.836 246.625 496.016 245.514 496.016 244.338ZM476.465 244.338C476.465 245.514 476.628 246.625 476.955 247.67C477.314 248.683 477.82 249.581 478.474 250.365C479.16 251.116 479.976 251.721 480.924 252.178C481.871 252.603 482.933 252.831 484.109 252.864V235.812C482.9 235.845 481.822 236.09 480.875 236.547C479.927 236.972 479.127 237.576 478.474 238.36C477.82 239.111 477.314 240.01 476.955 241.055C476.628 242.068 476.465 243.162 476.465 244.338Z" fill="black"/>
<path d="M534.357 242.329C534.292 240.369 533.671 238.752 532.495 237.478C531.319 236.204 529.637 235.567 527.448 235.567C526.435 235.567 525.488 235.763 524.606 236.155C523.757 236.514 523.005 237.004 522.352 237.625C521.699 238.246 521.16 238.964 520.735 239.781C520.343 240.598 520.114 241.447 520.049 242.329H534.357ZM538.767 243.897C538.767 244.158 538.767 244.436 538.767 244.73C538.767 244.991 538.751 245.269 538.718 245.563H520.049C520.082 246.608 520.294 247.588 520.686 248.503C521.111 249.385 521.666 250.153 522.352 250.806C523.038 251.459 523.838 251.982 524.753 252.374C525.7 252.766 526.697 252.962 527.742 252.962C529.375 252.962 530.764 252.603 531.907 251.884C533.083 251.133 533.981 250.283 534.602 249.336L537.885 251.688C536.578 253.419 535.076 254.677 533.377 255.461C531.678 256.245 529.8 256.637 527.742 256.637C526.011 256.637 524.394 256.343 522.891 255.755C521.388 255.167 520.082 254.334 518.971 253.256C517.893 252.178 517.044 250.888 516.423 249.385C515.802 247.882 515.492 246.216 515.492 244.387C515.492 242.59 515.786 240.941 516.374 239.438C516.995 237.903 517.844 236.596 518.922 235.518C520 234.407 521.258 233.558 522.695 232.97C524.165 232.349 525.749 232.039 527.448 232.039C529.245 232.039 530.845 232.349 532.25 232.97C533.655 233.558 534.831 234.391 535.778 235.469C536.758 236.514 537.493 237.756 537.983 239.193C538.506 240.63 538.767 242.198 538.767 243.897Z" fill="black"/>
<path d="M571.75 238.605C571.228 237.788 570.46 237.135 569.447 236.645C568.467 236.122 567.406 235.861 566.262 235.861C565.054 235.861 563.959 236.09 562.979 236.547C561.999 236.972 561.166 237.56 560.48 238.311C559.794 239.062 559.255 239.961 558.863 241.006C558.504 242.051 558.324 243.162 558.324 244.338C558.324 245.514 558.504 246.625 558.863 247.67C559.255 248.715 559.794 249.614 560.48 250.365C561.166 251.116 561.999 251.721 562.979 252.178C563.959 252.603 565.054 252.815 566.262 252.815C567.536 252.815 568.647 252.57 569.594 252.08C570.574 251.59 571.375 250.937 571.995 250.12L575.033 252.864C574.021 254.007 572.779 254.922 571.309 255.608C569.872 256.294 568.173 256.637 566.213 256.637C564.351 256.637 562.636 256.343 561.068 255.755C559.533 255.134 558.21 254.285 557.099 253.207C556.021 252.096 555.172 250.79 554.551 249.287C553.931 247.784 553.62 246.135 553.62 244.338C553.62 242.541 553.931 240.892 554.551 239.389C555.172 237.886 556.021 236.596 557.099 235.518C558.21 234.407 559.533 233.558 561.068 232.97C562.636 232.349 564.351 232.039 566.213 232.039C567.814 232.039 569.415 232.366 571.015 233.019C572.616 233.672 573.906 234.62 574.886 235.861L571.75 238.605Z" fill="black"/>
<path d="M606.098 238.605C605.575 237.788 604.808 237.135 603.795 236.645C602.815 236.122 601.753 235.861 600.61 235.861C599.401 235.861 598.307 236.09 597.327 236.547C596.347 236.972 595.514 237.56 594.828 238.311C594.142 239.062 593.603 239.961 593.211 241.006C592.852 242.051 592.672 243.162 592.672 244.338C592.672 245.514 592.852 246.625 593.211 247.67C593.603 248.715 594.142 249.614 594.828 250.365C595.514 251.116 596.347 251.721 597.327 252.178C598.307 252.603 599.401 252.815 600.61 252.815C601.884 252.815 602.995 252.57 603.942 252.08C604.922 251.59 605.722 250.937 606.343 250.12L609.381 252.864C608.368 254.007 607.127 254.922 605.657 255.608C604.22 256.294 602.521 256.637 600.561 256.637C598.699 256.637 596.984 256.343 595.416 255.755C593.881 255.134 592.558 254.285 591.447 253.207C590.369 252.096 589.52 250.79 588.899 249.287C588.278 247.784 587.968 246.135 587.968 244.338C587.968 242.541 588.278 240.892 588.899 239.389C589.52 237.886 590.369 236.596 591.447 235.518C592.558 234.407 593.881 233.558 595.416 232.97C596.984 232.349 598.699 232.039 600.561 232.039C602.162 232.039 603.762 232.366 605.363 233.019C606.964 233.672 608.254 234.62 609.234 235.861L606.098 238.605Z" fill="black"/>
<path d="M641.52 238.507L628.294 256H623.688V232.676H628.294V249.679L641.52 232.676H646.13V256H641.52V238.507Z" fill="black"/>
<path d="M681.61 238.507L668.38 256H663.78V232.676H668.38V249.679L681.61 232.676H686.22V256H681.61V238.507Z" fill="black"/>
<path d="M743.75 238.507L730.52 256H725.92V232.676H730.52V249.679L743.75 232.676H748.36V256H743.75V238.507Z" fill="black"/>
<path d="M784.78 232.676H805.26V236.351H797.07V256H792.52V236.351H784.78V232.676Z" fill="black"/>
<path d="M837.12 242.329C837.06 240.369 836.44 238.752 835.26 237.478C834.09 236.204 832.4 235.567 830.21 235.567C829.2 235.567 828.25 235.763 827.37 236.155C826.52 236.514 825.77 237.004 825.12 237.625C824.47 238.246 823.93 238.964 823.5 239.781C823.11 240.598 822.88 241.447 822.82 242.329H837.12ZM841.53 243.897C841.53 244.158 841.53 244.436 841.53 244.73C841.53 244.991 841.52 245.269 841.48 245.563H822.82C822.85 246.608 823.06 247.588 823.45 248.503C823.88 249.385 824.43 250.153 825.12 250.806C825.8 251.459 826.6 251.982 827.52 252.374C828.47 252.766 829.46 252.962 830.51 252.962C832.14 252.962 833.53 252.603 834.67 251.884C835.85 251.133 836.75 250.283 837.37 249.336L840.65 251.688C839.34 253.419 837.84 254.677 836.14 255.461C834.44 256.245 832.57 256.637 830.51 256.637C828.78 256.637 827.16 256.343 825.66 255.755C824.15 255.167 822.85 254.334 821.74 253.256C820.66 252.178 819.81 250.888 819.19 249.385C818.57 247.882 818.26 246.216 818.26 244.387C818.26 242.59 818.55 240.941 819.14 239.438C819.76 237.903 820.61 236.596 821.69 235.518C822.77 234.407 824.02 233.558 825.46 232.97C826.93 232.349 828.52 232.039 830.21 232.039C832.01 232.039 833.61 232.349 835.02 232.97C836.42 233.558 837.6 234.391 838.54 235.469C839.52 236.514 840.26 237.756 840.75 239.193C841.27 240.63 841.53 242.198 841.53 243.897Z" fill="black"/>
<path d="M863.59 243.897L855.01 232.676H860.6L866.43 240.859L872.26 232.676H877.6L869.13 243.799L878.39 256H872.75L866.33 246.984L859.77 256H854.38L863.59 243.897Z" fill="black"/>
<path d="M897.19 256H892.63V232.676H897.19V241.888H909V232.676H913.56V256H909V245.563H897.19V256Z" fill="black"/>
<path d="M954.96 244.338C954.96 246.135 954.63 247.784 953.98 249.287C953.36 250.79 952.47 252.096 951.33 253.207C950.22 254.285 948.9 255.134 947.36 255.755C945.83 256.343 944.16 256.637 942.36 256.637C940.57 256.637 938.9 256.343 937.37 255.755C935.86 255.134 934.54 254.285 933.4 253.207C932.29 252.096 931.4 250.79 930.75 249.287C930.13 247.784 929.82 246.135 929.82 244.338C929.82 242.541 930.13 240.892 930.75 239.389C931.4 237.886 932.29 236.596 933.4 235.518C934.54 234.407 935.86 233.558 937.37 232.97C938.9 232.349 940.57 232.039 942.36 232.039C944.16 232.039 945.83 232.349 947.36 232.97C948.9 233.558 950.22 234.407 951.33 235.518C952.47 236.596 953.36 237.886 953.98 239.389C954.63 240.892 954.96 242.541 954.96 244.338ZM950.35 244.338C950.35 243.162 950.15 242.068 949.76 241.055C949.4 240.01 948.88 239.111 948.19 238.36C947.51 237.576 946.68 236.972 945.7 236.547C944.72 236.09 943.6 235.861 942.36 235.861C941.12 235.861 940.01 236.09 939.03 236.547C938.05 236.972 937.22 237.576 936.53 238.36C935.85 239.111 935.32 240.01 934.96 241.055C934.61 242.068 934.43 243.162 934.43 244.338C934.43 245.481 934.61 246.576 934.96 247.621C935.32 248.634 935.85 249.532 936.53 250.316C937.22 251.067 938.05 251.672 939.03 252.129C940.01 252.586 941.12 252.815 942.36 252.815C943.6 252.815 944.72 252.586 945.7 252.129C946.68 251.672 947.51 251.067 948.19 250.316C948.88 249.532 949.4 248.634 949.76 247.621C950.15 246.576 950.35 245.481 950.35 244.338Z" fill="black"/>
<path d="M987.26 256L980.3 238.115L973 256H968.15L978.04 232.676H982.7L992.01 256H987.26Z" fill="black"/>
<path d="M1030.35 244.338C1030.35 246.135 1030.02 247.784 1029.37 249.287C1028.75 250.79 1027.87 252.096 1026.73 253.207C1025.61 254.285 1024.29 255.134 1022.76 255.755C1021.22 256.343 1019.56 256.637 1017.76 256.637C1015.96 256.637 1014.3 256.343 1012.76 255.755C1011.26 255.134 1009.93 254.285 1008.79 253.207C1007.68 252.096 1006.8 250.79 1006.15 249.287C1005.52 247.784 1005.21 246.135 1005.21 244.338C1005.21 242.541 1005.52 240.892 1006.15 239.389C1006.8 237.886 1007.68 236.596 1008.79 235.518C1009.93 234.407 1011.26 233.558 1012.76 232.97C1014.3 232.349 1015.96 232.039 1017.76 232.039C1019.56 232.039 1021.22 232.349 1022.76 232.97C1024.29 233.558 1025.61 234.407 1026.73 235.518C1027.87 236.596 1028.75 237.886 1029.37 239.389C1030.02 240.892 1030.35 242.541 1030.35 244.338ZM1025.75 244.338C1025.75 243.162 1025.55 242.068 1025.16 241.055C1024.8 240.01 1024.28 239.111 1023.59 238.36C1022.9 237.576 1022.07 236.972 1021.09 236.547C1020.11 236.09 1019 235.861 1017.76 235.861C1016.52 235.861 1015.41 236.09 1014.43 236.547C1013.45 236.972 1012.61 237.576 1011.93 238.36C1011.24 239.111 1010.72 240.01 1010.36 241.055C1010 242.068 1009.82 243.162 1009.82 244.338C1009.82 245.481 1010 246.576 1010.36 247.621C1010.72 248.634 1011.24 249.532 1011.93 250.316C1012.61 251.067 1013.45 251.672 1014.43 252.129C1015.41 252.586 1016.52 252.815 1017.76 252.815C1019 252.815 1020.11 252.586 1021.09 252.129C1022.07 251.672 1022.9 251.067 1023.59 250.316C1024.28 249.532 1024.8 248.634 1025.16 247.621C1025.55 246.576 1025.75 245.481 1025.75 244.338Z" fill="black"/>
<path d="M1051.19 256H1046.63V232.676H1061.62V236.351H1051.19V256Z" fill="black"/>
<path d="M1093.88 238.507L1080.65 256H1076.05V232.676H1080.65V249.679L1093.88 232.676H1098.49V256H1093.88V238.507Z" fill="black"/>
<path d="M1133.97 238.507L1120.74 256H1116.14V232.676H1120.74V249.679L1133.97 232.676H1138.58V256H1133.97V238.507Z" fill="black"/>
<path fill-rule="evenodd" clip-rule="evenodd" d="M233.591 0C258.117 0 278 21.819 278 48.734V257.576C276.657 265.18 268.539 269.673 260.994 267.088C257.212 265.792 254.56 263.081 253.039 258.955L252.896 258.552L252.754 257.622C252.632 256.78 252.569 256.198 252.564 255.876C252.529 250.384 252.51 244.902 252.507 239.432C252.54 224.59 252.526 223.9 252.466 209.08C252.452 206.021 251.779 203.511 250.446 201.548C243.558 191.397 227.641 196.018 227.505 208.457C227.436 214.756 227.452 215.692 227.551 239.547C227.611 245.73 227.603 251.922 227.526 258.122C227.498 260.246 227.9 262.45 228.733 264.734L228.905 265.192C229.819 268.515 231.198 271.581 233.043 274.389C237.776 281.603 244.553 287.274 252.644 290.21C256.987 291.787 261.423 292.671 265.852 292.754C257.757 302.142 246.298 308 233.591 308H232.236C227.212 304.809 222.591 300.951 218.522 296.553C211.067 288.492 205.982 279.08 203.268 268.318C202.414 265.144 201.99 262.365 201.995 259.98C202.036 244.706 202.048 229.434 202.028 214.162C202.078 197.316 202.076 180.472 202.021 163.631C202.012 160.581 201.814 158.431 201.426 157.181C200.278 153.472 197.925 150.824 194.368 149.235C187.628 146.225 179.814 150.028 177.691 156.599C177.267 157.909 177.053 160.449 177.048 164.218C177.018 180.992 177.018 197.766 177.048 214.538C177.084 228.964 177.084 243.389 177.048 257.812C177.037 263.382 177.643 268.857 178.868 274.236C180.994 282.972 184.057 290.755 188.058 297.586C190.2 301.246 192.57 304.716 195.165 308H151.357C151.486 272.924 151.719 207.808 151.696 169.772C151.692 167.393 151.846 163.989 151.588 161.038C151.649 160.456 151.68 159.845 151.68 159.206C151.68 151.602 151.676 126.166 151.671 110.735C151.671 106.265 151.813 103.434 149.805 100.334C147.264 96.407 143.688 94.475 139.078 94.538C133.721 94.608 128.943 98.016 127.269 102.89C126.86 104.081 126.656 106.437 126.656 109.958C126.656 122.497 126.667 148.929 126.689 161.421C126.44 163.759 126.572 166.328 126.572 168.291C126.568 208.807 126.324 273.207 126.175 308H84.288C86.707 304.917 88.926 301.671 90.946 298.261C94.982 291.452 98.072 283.695 100.216 274.987C101.452 269.625 102.064 264.168 102.053 258.616C102.017 244.239 102.017 229.86 102.053 215.48C102.083 198.763 102.083 182.044 102.053 165.323C102.047 161.567 101.831 159.035 101.403 157.729C99.262 151.179 91.38 147.388 84.581 150.389C80.993 151.972 78.62 154.612 77.462 158.309C77.07 159.554 76.871 161.698 76.862 164.738C76.807 181.525 76.804 198.314 76.854 215.106C76.834 230.329 76.845 245.552 76.887 260.777C76.892 263.154 76.465 265.924 75.604 269.088C72.866 279.815 67.736 289.196 60.216 297.231C56.384 301.325 52.068 304.949 47.388 308H44.409C32.014 308 20.807 302.426 12.751 293.439C17.127 293.327 21.507 292.449 25.798 290.909C33.958 287.983 40.794 282.331 45.568 275.14C47.313 272.515 48.645 269.665 49.564 266.59L49.743 265.972L49.917 265.516C50.757 263.239 51.162 261.042 51.134 258.925C51.056 252.745 51.048 246.573 51.109 240.409C51.209 216.631 51.225 215.698 51.155 209.419C51.017 197.021 34.962 192.415 28.014 202.533C26.67 204.49 25.99 206.992 25.977 210.041C25.915 224.813 25.902 225.5 25.936 240.294C25.933 245.747 25.913 251.211 25.877 256.686C25.873 257.007 25.809 257.587 25.687 258.427L25.544 259.353C24.036 263.691 21.313 266.528 17.375 267.861C9.048 270.681 0.0239868 265.054 0.0239868 256.158V236.61C0.0229868 236.3 0.013 235.996 0 235.697V48.734C0 21.819 19.883 0 44.409 0H233.591ZM38.212 156.895C34.021 156.895 30.002 158.54 27.039 161.468C24.076 164.396 22.411 168.367 22.411 172.508C22.411 176.649 24.076 180.621 27.039 183.549C30.002 186.477 34.021 188.121 38.212 188.121C42.402 188.121 46.422 186.477 49.385 183.549C52.348 180.621 54.013 176.649 54.013 172.508C54.013 168.367 52.348 164.396 49.385 161.468C46.422 158.54 42.403 156.895 38.212 156.895ZM240.337 155.762C236.182 155.762 232.197 157.412 229.26 160.35C226.322 163.287 224.672 167.272 224.672 171.426C224.672 175.58 226.322 179.564 229.26 182.502C232.197 185.439 236.182 187.09 240.337 187.09C244.491 187.09 248.476 185.439 251.413 182.502C254.351 179.564 256.001 175.58 256.001 171.426C256.001 167.271 254.351 163.287 251.413 160.35C248.476 157.412 244.491 155.762 240.337 155.762ZM92.015 109.536C89.964 109.17 87.861 109.207 85.828 109.646C83.795 110.084 81.87 110.914 80.165 112.09C78.46 113.265 77.007 114.763 75.889 116.497C74.771 118.231 74.009 120.168 73.648 122.196C73.288 124.225 73.335 126.305 73.787 128.319C74.239 130.333 75.086 132.242 76.281 133.935C77.477 135.628 78.996 137.073 80.753 138.188C82.51 139.302 84.47 140.064 86.521 140.43C88.573 140.796 90.675 140.758 92.708 140.32C94.741 139.882 96.665 139.051 98.37 137.876C100.076 136.7 101.529 135.203 102.647 133.469C103.766 131.735 104.526 129.798 104.887 127.77C105.247 125.741 105.201 123.661 104.749 121.646C104.297 119.632 103.449 117.723 102.254 116.03C101.059 114.337 99.539 112.893 97.782 111.778C96.025 110.664 94.066 109.902 92.015 109.536ZM193.132 108.36C191.116 107.921 189.032 107.883 186.999 108.25C184.966 108.617 183.022 109.382 181.28 110.5C179.539 111.618 178.033 113.067 176.848 114.766C175.663 116.464 174.822 118.379 174.374 120.399C173.926 122.42 173.88 124.508 174.237 126.543C174.595 128.578 175.35 130.52 176.458 132.26C177.566 133.999 179.008 135.502 180.698 136.682C182.389 137.861 184.296 138.694 186.312 139.134C188.327 139.573 190.411 139.61 192.444 139.243C194.478 138.876 196.421 138.112 198.163 136.994C199.905 135.876 201.411 134.426 202.596 132.728C203.781 131.029 204.622 129.114 205.069 127.094C205.517 125.073 205.564 122.986 205.206 120.951C204.848 118.916 204.094 116.973 202.985 115.233C201.877 113.494 200.436 111.992 198.745 110.812C197.054 109.633 195.147 108.8 193.132 108.36ZM137.97 54C133.718 54 129.642 55.669 126.636 58.64C123.63 61.61 121.94 65.639 121.94 69.84C121.94 74.041 123.63 78.07 126.636 81.04C129.642 84.01 133.718 85.68 137.97 85.68C142.221 85.68 146.298 84.011 149.305 81.04C152.311 78.07 154 74.041 154 69.84C154 65.639 152.311 61.61 149.305 58.64C146.298 55.669 142.221 54 137.97 54Z" fill="url(#paint0_radial_2133_2592)"/>
<path d="M408.697 52.797C425.575 52.814 442.901 52.864 460.676 52.948C461.352 52.951 461.999 53.224 462.476 53.707C462.953 54.19 463.22 54.8441 463.22 55.5251C463.229 112.703 463.208 156.495 463.158 186.903C463.158 189.153 460.976 189.983 458.781 189.958C455.613 189.916 449.702 189.895 441.047 189.895C438.985 189.895 437.958 188.784 437.967 186.563C438.008 143.885 438.075 107.69 438.166 77.979C438.166 77.781 438.108 77.589 438.002 77.425C437.895 77.262 437.744 77.135 437.568 77.061C437.36 76.969 437.031 76.923 436.582 76.923C423.413 76.964 414.11 76.9811 408.672 76.9731C403.235 76.9731 393.936 76.944 380.775 76.885C380.318 76.876 379.985 76.918 379.777 77.011C379.601 77.085 379.45 77.212 379.343 77.375C379.237 77.538 379.179 77.731 379.179 77.928C379.22 107.64 379.224 143.835 379.191 186.513C379.2 188.734 378.173 189.84 376.111 189.832C367.456 189.823 361.545 189.836 358.377 189.87C356.182 189.895 354 189.052 354 186.802C354 156.394 354.054 112.602 354.162 55.424C354.165 54.743 354.436 54.091 354.915 53.61C355.394 53.13 356.043 52.86 356.719 52.86C374.486 52.801 391.812 52.78 408.697 52.797Z" fill="black"/>
<path d="M998.29 97.088C998.19 97.146 998.11 97.2261 998.05 97.3271C983.53 123.309 972.55 142.594 965.11 155.183C959.14 165.283 952.97 176.065 946.59 187.531C946.21 188.217 945.65 188.79 944.98 189.189C944.31 189.589 943.54 189.802 942.75 189.806C939.66 189.831 932.33 189.84 920.77 189.831C917.77 189.831 917.31 187.455 917.31 184.79C917.21 142.732 917.23 100.159 917.37 57.071C917.4 51.916 920.47 52.6581 924.47 52.6581C927.6 52.6671 932.48 52.709 939.12 52.784C941.3 52.809 942.39 53.79 942.4 55.726C942.58 100.792 942.45 131.828 942.02 148.834C942.02 148.9 942.03 148.965 942.06 149.025C942.09 149.084 942.13 149.136 942.18 149.176C942.23 149.216 942.29 149.244 942.36 149.256C942.42 149.269 942.49 149.266 942.55 149.249C943.02 149.115 943.42 148.738 943.75 148.118C953.35 130.215 970.57 99.187 995.39 55.034C995.75 54.397 996.27 53.866 996.9 53.498C997.53 53.129 998.24 52.935 998.97 52.935C1005.79 52.926 1012.98 52.893 1020.53 52.834C1022.74 52.809 1023.83 53.9031 1023.83 56.1161C1023.73 85.5261 1023.73 128.476 1023.83 184.966C1023.83 190.598 1020.71 189.894 1016.27 189.919C1008.23 189.953 1003.32 189.898 1001.54 189.756C999.64 189.597 998.69 188.532 998.68 186.563C998.59 157.496 998.67 127.793 998.92 97.4521C998.92 97.3761 998.91 97.301 998.87 97.234C998.83 97.167 998.78 97.112 998.71 97.075C998.65 97.037 998.57 97.018 998.5 97.021C998.42 97.023 998.35 97.046 998.29 97.088Z" fill="black"/>
<path d="M1085.39 52.809C1101.28 52.809 1117.33 52.83 1133.53 52.872C1135.87 52.872 1137.02 54.15 1137 56.706C1136.92 63.83 1136.87 69.509 1136.87 73.741C1136.87 75.803 1135.81 76.868 1133.72 76.935C1129.78 77.052 1118.09 77.052 1098.64 76.935C1098.44 76.935 1098.26 77.012 1098.12 77.148C1097.98 77.285 1097.9 77.471 1097.9 77.664C1097.86 113.268 1097.88 149.672 1097.95 186.877C1097.95 188.687 1096.88 189.63 1094.74 189.706C1092.23 189.798 1089.13 189.844 1085.42 189.844C1081.7 189.844 1078.6 189.802 1076.1 189.718C1073.95 189.634 1072.87 188.687 1072.87 186.877C1072.94 149.672 1072.94 113.268 1072.89 77.664C1072.89 77.471 1072.81 77.285 1072.67 77.148C1072.53 77.012 1072.35 76.935 1072.15 76.935C1052.7 77.06 1041.01 77.065 1037.07 76.947C1034.98 76.889 1033.92 75.828 1033.91 73.767C1033.91 69.534 1033.87 63.856 1033.78 56.732C1033.75 54.175 1034.91 52.893 1037.24 52.884C1053.45 52.843 1069.5 52.817 1085.39 52.809Z" fill="black"/>
<path d="M639.208 55.7292C647.91 52.3613 657.19 50.7295 666.53 50.9264C685.39 51.3254 703.32 59.1494 716.38 72.6784C729.44 86.2074 736.56 104.332 736.17 123.067C735.98 132.344 733.95 141.49 730.19 149.985C726.44 158.48 721.04 166.157 714.3 172.577C707.56 178.997 699.62 184.035 690.92 187.402C682.22 190.77 672.93 192.402 663.59 192.205C644.74 191.807 626.805 183.982 613.745 170.453C600.685 156.924 593.568 138.799 593.957 120.064C594.15 110.788 596.179 101.641 599.931 93.1462C603.682 84.6513 609.081 76.9743 615.82 70.5544C622.56 64.1344 630.507 59.0972 639.208 55.7292ZM669.27 75.3327C657.04 74.2317 644.87 78.0547 635.443 85.9606C626.02 93.8656 620.116 105.207 619.029 117.489C617.941 129.77 621.76 141.986 629.646 151.449C637.531 160.912 648.84 166.847 661.08 167.948C673.309 169.049 685.48 165.226 694.91 157.321C704.33 149.415 710.23 138.074 711.32 125.793C712.41 113.511 708.59 101.295 700.7 91.8317C692.82 82.3689 681.51 76.4347 669.27 75.3327Z" fill="black"/>
<path d="M490.37 52.8086C510.315 52.7336 525.525 52.7551 536.001 52.8721C550.134 53.0401 561.425 57.582 569.872 66.5C585.448 82.9689 586.732 110.339 571.979 127.927C561.554 140.348 548.085 144.849 531.748 144.421C527.957 144.321 520.691 144.279 509.949 144.296C509.81 144.296 509.677 144.351 509.579 144.45C509.48 144.549 509.425 144.684 509.425 144.824C509.3 157.019 509.271 170.831 509.338 186.261C509.363 190.284 506.183 189.894 502.554 189.907C493.759 189.941 489.015 189.97 488.324 189.995C484.97 190.096 484.384 188.097 484.384 185.004C484.384 119.277 484.417 76.3478 484.483 56.2158C484.496 52.4949 487.165 52.8216 490.37 52.8086ZM509.899 76.8096C509.715 76.8096 509.536 76.8838 509.405 77.0156C509.274 77.1476 509.201 77.3267 509.201 77.5137V119.806C509.201 119.993 509.274 120.172 509.405 120.304C509.536 120.436 509.714 120.51 509.899 120.51H536.412C542.174 120.51 547.699 118.265 551.773 114.272C555.848 110.278 558.136 104.861 558.136 99.2129V98.1065C558.136 92.4577 555.848 87.0408 551.773 83.0469C547.699 79.0529 542.174 76.8096 536.412 76.8096H509.899Z" fill="black"/>
<path d="M832.97 48.9999C836.4 48.9879 837.66 49.8173 837.67 53.2753C837.67 56.3762 837.59 60.2906 837.44 65.0175C837.43 65.1142 837.45 65.2109 837.48 65.3016C837.52 65.3916 837.57 65.4739 837.64 65.5409C837.71 65.6089 837.8 65.6612 837.89 65.6942C837.98 65.7272 838.07 65.7413 838.17 65.7343C856.98 64.3253 873.54 68.2353 887.09 82.0653C899.11 94.3183 904.26 109.414 902.55 127.349C900.04 153.423 879.85 174.23 853.17 176.594C848.88 176.971 843.9 177.092 838.26 176.958C838.17 176.955 838.08 176.969 838 177C837.92 177.032 837.851 177.08 837.781 177.141C837.721 177.202 837.67 177.275 837.64 177.356C837.6 177.437 837.59 177.524 837.59 177.612V190.196C837.59 190.565 837.51 190.929 837.37 191.269C837.24 191.609 837.03 191.919 836.77 192.179C836.52 192.439 836.21 192.646 835.88 192.787C835.54 192.927 835.18 193 834.82 193H815.82C815.1 193 814.4 192.707 813.88 192.186C813.37 191.665 813.08 190.958 813.08 190.222V178.052C813.08 177.915 813.05 177.779 813 177.653C812.95 177.526 812.87 177.411 812.77 177.314C812.68 177.217 812.56 177.14 812.43 177.088C812.31 177.035 812.17 177.008 812.031 177.008C805.971 177.025 802.44 177.025 801.43 177.008C773.46 176.531 749.91 154.077 748.49 126.205C747.1 98.773 761.77 76.0297 788.25 67.7577C795.7 65.4318 804.72 65.3939 812.26 65.5829C812.35 65.5839 812.441 65.5671 812.531 65.5331C812.62 65.4981 812.7 65.4456 812.77 65.3807C812.83 65.3148 812.89 65.2372 812.92 65.1513C812.96 65.0653 812.98 64.9718 812.98 64.8788L813.08 51.9169C813.08 51.5309 813.16 51.1497 813.31 50.7958C813.46 50.4409 813.68 50.1214 813.96 49.8534C814.23 49.5854 814.56 49.3742 814.92 49.2352C815.27 49.0952 815.65 49.028 816.04 49.038C816.084 49.0379 821.734 49.0248 832.97 48.9999ZM803.54 89.6327C795.27 89.6327 787.35 92.9429 781.5 98.8348C775.66 104.727 772.37 112.718 772.37 121.05V121.754C772.37 130.087 775.66 138.078 781.5 143.97C787.35 149.862 795.27 153.172 803.54 153.172H812.54C812.75 153.172 812.95 153.088 813.1 152.94C813.25 152.791 813.33 152.59 813.33 152.38V90.4247C813.33 90.2148 813.25 90.013 813.1 89.8651C812.95 89.7162 812.75 89.6327 812.54 89.6327H803.54ZM838.11 89.4813C837.92 89.4814 837.74 89.5573 837.61 89.6913C837.47 89.8263 837.4 90.0083 837.4 90.1981V152.228C837.4 152.418 837.47 152.601 837.61 152.735C837.74 152.869 837.92 152.945 838.11 152.945H847.949C856.079 152.945 863.87 149.684 869.62 143.879C875.37 138.075 878.6 130.202 878.6 121.993V120.434C878.6 112.226 875.37 104.352 869.62 98.5468C863.87 92.7418 856.079 89.4813 847.949 89.4813H838.11Z" fill="black"/>
<defs>
<radialGradient id="paint0_radial_2133_2592" cx="0" cy="0" r="1" gradientUnits="userSpaceOnUse" gradientTransform="translate(139 61.405) rotate(90) scale(246.595 222.576)">
<stop stop-color="#09BDFF"/>
<stop offset="1" stop-color="#007BFF"/>
</radialGradient>
</defs>
</svg>
