<svg width="35" height="13" viewBox="0 0 35 13" fill="none" xmlns="http://www.w3.org/2000/svg">
<path d="M0.326668 5.77489L6.81333 0.215247C7.20222 -0.11463 7.77 -0.0583094 8.08889 0.335934C8.40778 0.738223 8.35333 1.32557 7.97222 1.65544L3.42222 5.55765H34.09C34.5878 5.55765 35 5.97603 35 6.49901C35 7.01394 34.5956 7.44036 34.09 7.44036H3.42222L7.97222 11.3426C8.36111 11.6724 8.40778 12.2678 8.08889 12.6621C7.91 12.8874 7.65333 13 7.38889 13C7.18667 13 6.97667 12.9276 6.81333 12.7828L0.326668 7.22313C0.116665 7.04612 0 6.78061 0 6.49901C0 6.2174 0.116665 5.95189 0.326668 5.77489Z" fill="#0F58D5"/>
</svg>
