<svg width="30" height="12" viewBox="0 0 30 12" fill="none" xmlns="http://www.w3.org/2000/svg">
<path d="M28.8 5.43749L23.5875 1.11874C23.275 0.862493 22.8188 0.906243 22.5625 1.21249C22.3062 1.52499 22.35 1.98124 22.6562 2.23749L26.3125 5.26874H1.66875C1.26875 5.26874 0.9375 5.59374 0.9375 5.99999C0.9375 6.39999 1.2625 6.73124 1.66875 6.73124H26.3125L22.6562 9.76249C22.3438 10.0187 22.3062 10.4812 22.5625 10.7875C22.7062 10.9625 22.9125 11.05 23.125 11.05C23.2875 11.05 23.4562 10.9937 23.5875 10.8812L28.8 6.56249C28.9688 6.42499 29.0625 6.21874 29.0625 5.99999C29.0625 5.78124 28.9688 5.57499 28.8 5.43749Z" fill="#545557"/>
</svg>
