<svg width="18" height="13" viewBox="0 0 18 13" fill="none" xmlns="http://www.w3.org/2000/svg">
<path fill-rule="evenodd" clip-rule="evenodd" d="M5.0512 11.3934C9.08512 7.35946 12.3596 4.08483 16.3935 0.0510678C16.4617 -0.0171809 16.5735 -0.0168641 16.6414 0.0510678L16.9549 0.364388L16.9579 0.367565L17.6323 1.04198L17.6355 1.04516L17.9489 1.35863C18.0169 1.42656 18.0172 1.53815 17.9489 1.6064C13.915 5.64035 10.6406 8.91497 6.60666 12.9489C6.53841 13.017 6.42714 13.017 6.35889 12.9489L6.04542 12.6355L6.04225 12.6323L5.36784 11.9579L5.36466 11.9547L5.05119 11.6412C4.98294 11.573 4.98295 11.4617 5.0512 11.3934Z" fill="white"/>
<path fill-rule="evenodd" clip-rule="evenodd" d="M6.36752 12.9481C2.26834 8.84895 4.15108 10.7317 0.0518936 6.63252C-0.0174587 6.56317 -0.0171368 6.44962 0.0518936 6.38059L0.370437 6.06221L0.373665 6.05898L1.05899 5.37366L1.06205 5.37043L1.38059 5.05189C1.44962 4.98286 1.56317 4.98254 1.63252 5.05189C5.7317 9.15105 3.84897 7.26832 7.94799 11.3675C8.01734 11.4368 8.01734 11.5499 7.94799 11.6192L7.62944 11.9378L7.62638 11.941L6.94106 12.6263L6.93783 12.6296L6.61929 12.9481C6.54994 13.0173 6.43687 13.0173 6.36752 12.9481Z" fill="white"/>
</svg>
