<svg width="12" height="12" viewBox="0 0 12 12" fill="none" xmlns="http://www.w3.org/2000/svg">
<path fill-rule="evenodd" clip-rule="evenodd" d="M0.241433 10.5957C-0.0798388 10.917 -0.0797893 11.4378 0.241531 11.7591C0.562852 12.0803 1.08376 12.0803 1.40503 11.759L6.0001 7.16347L10.5956 11.7586C10.9168 12.0798 11.4378 12.0798 11.759 11.7586C12.0803 11.4373 12.0803 10.9164 11.759 10.5952L7.16351 5.99999L11.7587 1.40431C12.0799 1.08302 12.0799 0.562144 11.7586 0.240905C11.4373 -0.0803426 10.9163 -0.0802934 10.5951 0.241003L5.99994 4.83659L1.40447 0.241398C1.08318 -0.0798655 0.56226 -0.0798655 0.240972 0.241398C-0.080324 0.56267 -0.080324 1.08354 0.240972 1.40482L4.83662 6.00007L0.241433 10.5957Z" fill="#EE3D48"/>
</svg>
