<svg width="41" height="41" viewBox="0 0 41 41" fill="none" xmlns="http://www.w3.org/2000/svg">
<path d="M39.4231 0H1.57692C0.706462 0 0 0.706462 0 1.57692C0 2.44738 0.706462 3.15385 1.57692 3.15385H35.6156L0.462038 38.3082C-0.15375 38.924 -0.15375 39.9222 0.462038 40.538C0.770327 40.8463 1.17323 41 1.57692 41C1.98062 41 2.38431 40.8463 2.69181 40.538L37.8462 5.38362V39.4231C37.8462 40.2935 38.5526 41 39.4231 41C40.2935 41 41 40.2935 41 39.4231V1.57692C41 0.706462 40.2935 0 39.4231 0Z" fill="#0F58D5"/>
</svg>
